<?xml version="1.0" encoding="utf-8"?>
<!-- Generator: Adobe Illustrator 24.2.1, SVG Export Plug-In . SVG Version: 6.00 Build 0)  -->
<svg version="1.1" id="Layer_1" xmlns="http://www.w3.org/2000/svg" xmlns:xlink="http://www.w3.org/1999/xlink" x="0px" y="0px"
	 viewBox="0 0 1368 300" style="enable-background:new 0 0 1368 300;" xml:space="preserve">
<style type="text/css">
	.st0{fill:#FFFFFF;}
	.st1{fill:#EDEDED;}
	.st2{fill:#DBDCDD;}
	.st3{fill:#E7E7E7;}
	.st4{fill:#FAFAFA;}
	.st5{fill:#F2F0F0;}
	.st6{fill:#025599;}
	.st7{fill:#005EB8;}
	.st8{fill:#0A84F2;}
	.st9{fill:#DEF1FC;}
	.st10{fill:#2D2D2D;}
	.st11{clip-path:url(#SVGID_2_);}
	.st12{fill:url(#SVGID_3_);}
	.st13{opacity:0.2;enable-background:new    ;}
	.st14{opacity:0.18;enable-background:new    ;}
	.st15{fill:url(#SVGID_4_);}
	.st16{fill:url(#SVGID_5_);}
	.st17{fill:#FBB040;}
	.st18{fill:#02355E;}
	.st19{fill:#BDDDF4;}
	.st20{fill:#70BEF2;}
	.st21{fill:#ED8B00;}
	.st22{fill:#AAC1E2;}
	.st23{fill:#F9A67D;}
	.st24{fill:#D9D9D9;}
	.st25{fill:#FFB285;}
	.st26{fill:#E4EEFA;}
</style>
<g id="mask0">
	<path class="st0" d="M636.8,5c0-2.8,2.2-5,5-5H672c2.8,0,5,2.2,5,5v111.1c0,2.8-2.2,5-5,5h-80.8c-2.8,0-5-2.2-5-5V65.7
		c0-2.8,2.2-5,5-5h20.2V35.3c0-2.8,2.2-5,5-5h20.2L636.8,5z"/>
</g>
<polygon class="st1" points="608.1,117.7 608.1,87.2 597.1,87.2 597.1,75.6 591.2,75.6 591.2,65.8 589.1,65.8 589.1,49.1 
	588.5,49.1 588.5,65.8 586.5,65.8 586.5,75.6 580.6,75.6 580.6,87.2 569.6,87.2 569.6,117.7 567.3,117.7 567.3,173.1 550.4,173.1 
	550.4,236.2 567.3,236.2 584.3,236.2 610.3,236.2 610.3,117.7 "/>
<polygon class="st1" points="1061.8,145.7 1008.4,145.7 1008.4,146.7 1010.8,146.7 1010.8,237 1059.4,237 1059.4,146.7 
	1061.8,146.7 "/>
<rect x="534.6" y="168.2" class="st2" width="47.4" height="75.3"/>
<rect x="566.6" y="181.7" class="st3" width="31.1" height="61.8"/>
<rect x="510" y="179.2" class="st1" width="27.5" height="64.2"/>
<rect x="878.6" y="214.9" class="st1" width="328.9" height="28.6"/>
<rect x="1190.8" y="169" class="st1" width="50.8" height="74.4"/>
<rect x="1234.1" y="198" class="st1" width="50.8" height="45.1"/>
<rect x="1037.2" y="191.4" class="st1" width="28.5" height="37.8"/>
<polygon class="st1" points="1311.2,243.4 1263.8,243.4 1263.8,158.7 1299.8,158.7 "/>
<rect x="1290.5" y="224.1" class="st1" width="41.5" height="19.4"/>
<rect x="1242.8" y="67.9" class="st2" width="1.2" height="39.4"/>
<rect x="1247" y="76.4" class="st2" width="1.2" height="39.4"/>
<rect x="1239" y="81.8" class="st2" width="1.2" height="39.5"/>
<rect x="1265.7" y="151.8" class="st1" width="16.9" height="13.4"/>
<rect x="1267.6" y="147.1" class="st1" width="13.2" height="7.5"/>
<rect x="1289.4" y="155.7" class="st1" width="3.3" height="5.4"/>
<rect x="1293.8" y="150.8" class="st1" width="4.6" height="10.3"/>
<rect x="1216.2" y="98.3" class="st2" width="35.9" height="145.2"/>
<rect x="182.8" y="123.4" class="st4" width="36.9" height="147"/>
<rect x="188.9" y="112.9" class="st4" width="24.9" height="61.8"/>
<rect x="194.4" y="106.2" class="st4" width="13.8" height="34.3"/>
<polygon class="st4" points="206,123.8 196.6,123.8 196.6,100.5 200,100.5 203.3,100.5 206,100.5 "/>
<polygon class="st4" points="200.7,113.7 199.6,113.7 199.6,90.3 200,90.3 200.4,90.3 200.7,90.3 "/>
<polygon class="st4" points="202.9,105.6 201.9,105.6 201.9,82.2 202.3,82.2 202.6,82.2 202.9,82.2 "/>
<rect x="181.8" y="123.1" class="st2" width="38.9" height="1.6"/>
<rect x="187.9" y="112.2" class="st4" width="26.7" height="1.5"/>
<rect x="193.4" y="105.6" class="st4" width="15.4" height="1.2"/>
<rect x="191.1" y="115.4" class="st2" width="1.2" height="6.5"/>
<rect x="194.3" y="115.4" class="st2" width="1.2" height="6.5"/>
<rect x="197.5" y="115.4" class="st2" width="1.2" height="6.5"/>
<rect x="200.7" y="115.4" class="st2" width="1.2" height="6.5"/>
<rect x="203.9" y="115.4" class="st2" width="1.2" height="6.5"/>
<rect x="207.1" y="115.4" class="st2" width="1.2" height="6.5"/>
<rect x="210.3" y="115.4" class="st2" width="1.2" height="6.5"/>
<rect x="186.1" y="129.3" class="st2" width="2.8" height="7.7"/>
<rect x="191.6" y="129.3" class="st2" width="2.8" height="7.7"/>
<rect x="197.1" y="129.3" class="st2" width="2.8" height="7.7"/>
<rect x="202.7" y="129.3" class="st2" width="2.8" height="7.7"/>
<rect x="208.2" y="129.3" class="st2" width="2.8" height="7.7"/>
<rect x="213.7" y="129.3" class="st2" width="2.8" height="7.7"/>
<rect x="186.1" y="141.3" class="st2" width="2.8" height="7.7"/>
<rect x="191.6" y="141.3" class="st2" width="2.8" height="7.7"/>
<rect x="197.1" y="141.3" class="st2" width="2.8" height="7.7"/>
<rect x="202.7" y="141.3" class="st2" width="2.8" height="7.7"/>
<rect x="208.2" y="141.3" class="st2" width="2.8" height="7.7"/>
<rect x="213.7" y="141.3" class="st2" width="2.8" height="7.7"/>
<rect x="186.1" y="153.2" class="st2" width="2.8" height="7.7"/>
<rect x="191.6" y="153.2" class="st2" width="2.8" height="7.7"/>
<rect x="197.1" y="153.2" class="st2" width="2.8" height="7.7"/>
<rect x="202.7" y="153.2" class="st2" width="2.8" height="7.7"/>
<rect x="208.2" y="153.2" class="st2" width="2.8" height="7.7"/>
<rect x="213.7" y="153.2" class="st2" width="2.8" height="7.7"/>
<rect x="186.1" y="165.2" class="st2" width="2.8" height="7.7"/>
<rect x="191.6" y="165.2" class="st2" width="2.8" height="7.7"/>
<rect x="197.1" y="165.2" class="st2" width="2.8" height="7.7"/>
<rect x="202.7" y="165.2" class="st2" width="2.8" height="7.7"/>
<rect x="208.2" y="165.2" class="st2" width="2.8" height="7.7"/>
<rect x="213.7" y="165.2" class="st2" width="2.8" height="7.7"/>
<rect x="186.1" y="177.2" class="st2" width="2.8" height="7.7"/>
<rect x="191.6" y="177.2" class="st2" width="2.8" height="7.7"/>
<rect x="197.1" y="177.2" class="st2" width="2.8" height="7.7"/>
<rect x="202.7" y="177.2" class="st2" width="2.8" height="7.7"/>
<rect x="208.2" y="177.2" class="st2" width="2.8" height="7.7"/>
<rect x="213.7" y="177.2" class="st2" width="2.8" height="7.7"/>
<rect x="186.1" y="189.1" class="st2" width="2.8" height="7.7"/>
<rect x="191.6" y="189.1" class="st2" width="2.8" height="7.7"/>
<rect x="197.1" y="189.1" class="st2" width="2.8" height="7.7"/>
<rect x="202.7" y="189.1" class="st2" width="2.8" height="7.7"/>
<rect x="208.2" y="189.1" class="st2" width="2.8" height="7.7"/>
<rect x="213.7" y="189.1" class="st2" width="2.8" height="7.7"/>
<rect x="186.1" y="201.1" class="st2" width="2.8" height="7.7"/>
<rect x="191.6" y="201.1" class="st2" width="2.8" height="7.7"/>
<rect x="197.1" y="201.1" class="st2" width="2.8" height="7.7"/>
<rect x="202.7" y="201.1" class="st2" width="2.8" height="7.7"/>
<rect x="208.2" y="201.1" class="st2" width="2.8" height="7.7"/>
<rect x="213.7" y="201.1" class="st2" width="2.8" height="7.7"/>
<rect x="186.1" y="213.1" class="st2" width="2.8" height="7.7"/>
<rect x="191.6" y="213.1" class="st2" width="2.8" height="7.7"/>
<rect x="197.1" y="213.1" class="st2" width="2.8" height="7.7"/>
<rect x="202.7" y="213.1" class="st2" width="2.8" height="7.7"/>
<rect x="208.2" y="213.1" class="st2" width="2.8" height="7.7"/>
<rect x="213.7" y="213.1" class="st2" width="2.8" height="7.7"/>
<rect x="186.1" y="225" class="st2" width="2.8" height="7.7"/>
<rect x="191.6" y="225" class="st2" width="2.8" height="7.7"/>
<rect x="197.1" y="225" class="st2" width="2.8" height="7.7"/>
<rect x="202.7" y="225" class="st2" width="2.8" height="7.7"/>
<rect x="208.2" y="225" class="st2" width="2.8" height="7.7"/>
<rect x="213.7" y="225" class="st2" width="2.8" height="7.7"/>
<rect x="186.1" y="237" class="st2" width="2.8" height="7.7"/>
<rect x="191.6" y="237" class="st2" width="2.8" height="7.7"/>
<rect x="197.1" y="237" class="st2" width="2.8" height="7.7"/>
<rect x="202.7" y="237" class="st2" width="2.8" height="7.7"/>
<rect x="208.2" y="237" class="st2" width="2.8" height="7.7"/>
<rect x="213.7" y="237" class="st2" width="2.8" height="7.7"/>
<rect x="186.1" y="249" class="st2" width="2.8" height="7.7"/>
<rect x="191.6" y="249" class="st2" width="2.8" height="7.7"/>
<rect x="197.1" y="249" class="st2" width="2.8" height="7.7"/>
<rect x="202.7" y="249" class="st2" width="2.8" height="7.7"/>
<rect x="208.2" y="249" class="st2" width="2.8" height="7.7"/>
<rect x="213.7" y="249" class="st2" width="2.8" height="7.7"/>
<rect x="83.5" y="94.5" class="st4" width="59.3" height="123.8"/>
<rect x="81.8" y="92.4" class="st4" width="62.7" height="3.5"/>
<rect x="85.5" y="87.9" class="st4" width="55.4" height="16.6"/>
<rect x="89.7" y="81.1" class="st4" width="21.9" height="18.2"/>
<polygon class="st4" points="102.4,86.2 89.7,86.2 89.7,76.6 98.8,76.6 "/>
<rect x="94.8" y="68.7" class="st4" width="1.2" height="21.3"/>
<circle class="st4" cx="95.5" cy="67.6" r="1.1"/>
<polygon class="st4" points="1300,227.7 1240.1,227.7 1232.6,59.8 1300,73.8 "/>
<polygon class="st4" points="1179.9,123.8 1179.9,62.9 1169.7,62.9 1169.7,46.6 1166.1,46.6 1166.1,22.7 1146,22.7 1146,5.1 
	1144.2,5.1 1144.2,22.7 1140.3,22.7 1140.3,0.7 1138.5,0.7 1138.5,22.7 1125.8,22.7 1125.8,62.9 1119.3,62.9 1119.3,123.8 
	1113.7,123.8 1113.7,234.6 1183.9,234.6 1183.9,123.8 "/>
<rect x="1274.6" y="112.9" class="st4" width="43.1" height="138.8"/>
<rect x="1271.4" y="113.7" class="st1" width="49.5" height="1.4"/>
<rect x="1272.7" y="133.2" class="st1" width="46.8" height="1.4"/>
<rect x="1272.7" y="152.1" class="st1" width="46.8" height="1.4"/>
<rect x="1272.7" y="171" class="st1" width="46.8" height="1.4"/>
<rect x="1272.7" y="189.9" class="st1" width="46.8" height="1.4"/>
<rect x="1272.7" y="208.8" class="st1" width="46.8" height="1.4"/>
<rect x="1272.7" y="227.6" class="st1" width="46.8" height="1.4"/>
<rect x="1269.7" y="109.9" class="st1" width="52.8" height="3.8"/>
<rect x="1309.3" y="119.7" class="st1" width="4.5" height="11.1"/>
<rect x="1299.3" y="119.7" class="st1" width="4.5" height="11.1"/>
<rect x="1289.3" y="119.7" class="st1" width="4.5" height="11.1"/>
<rect x="1279.3" y="119.7" class="st1" width="4.5" height="11.1"/>
<rect x="1309.3" y="137.8" class="st1" width="4.5" height="11.1"/>
<rect x="1299.3" y="137.8" class="st1" width="4.5" height="11.1"/>
<rect x="1289.3" y="137.8" class="st1" width="4.5" height="11.1"/>
<rect x="1279.3" y="137.8" class="st1" width="4.5" height="11.1"/>
<rect x="1309.3" y="156.7" class="st1" width="4.5" height="11.1"/>
<rect x="1299.3" y="156.7" class="st1" width="4.5" height="11.1"/>
<rect x="1289.3" y="156.7" class="st1" width="4.5" height="11.1"/>
<rect x="1279.3" y="156.7" class="st1" width="4.5" height="11.1"/>
<rect x="1309.3" y="175.6" class="st1" width="4.5" height="11.1"/>
<rect x="1299.3" y="175.6" class="st1" width="4.5" height="11.1"/>
<rect x="1289.3" y="175.6" class="st1" width="4.5" height="11.1"/>
<rect x="1279.3" y="175.6" class="st1" width="4.5" height="11.1"/>
<rect x="1309.3" y="194.5" class="st1" width="4.5" height="11.1"/>
<rect x="1299.3" y="194.5" class="st1" width="4.5" height="11.1"/>
<rect x="1289.3" y="194.5" class="st1" width="4.5" height="11.1"/>
<rect x="1279.3" y="194.5" class="st1" width="4.5" height="11.1"/>
<rect x="1309.3" y="213.4" class="st1" width="4.5" height="11.1"/>
<rect x="1299.3" y="213.4" class="st1" width="4.5" height="11.1"/>
<rect x="1289.3" y="213.4" class="st1" width="4.5" height="11.1"/>
<rect x="1279.3" y="213.4" class="st1" width="4.5" height="11.1"/>
<rect x="1309.3" y="232.2" class="st1" width="4.5" height="11.1"/>
<rect x="1299.3" y="232.2" class="st1" width="4.5" height="11.1"/>
<rect x="1289.3" y="232.2" class="st1" width="4.5" height="11.1"/>
<rect x="1279.3" y="232.2" class="st1" width="4.5" height="11.1"/>
<rect x="1300.3" y="104.6" class="st1" width="14.7" height="7.2"/>
<rect x="1299.3" y="104.4" class="st1" width="16.6" height="1.2"/>
<rect x="10.5" y="229.7" class="st1" width="1346.3" height="41.5"/>
<rect x="239.6" y="169.6" class="st1" width="47.4" height="75.3"/>
<rect x="151" y="208.1" class="st1" width="81.5" height="36.7"/>
<rect x="229.3" y="183" class="st1" width="31.1" height="61.8"/>
<rect x="284.1" y="180.6" class="st1" width="27.5" height="64.2"/>
<rect x="86.9" y="178.2" class="st1" width="31.6" height="66.7"/>
<rect x="97.1" y="160" class="st1" width="62.9" height="84.8"/>
<rect x="93.4" y="156.8" class="st1" width="68.2" height="3.3"/>
<rect x="99.9" y="148" class="st1" width="27.7" height="17.2"/>
<rect x="136.6" y="148" class="st1" width="4.6" height="10.4"/>
<rect x="145.9" y="148" class="st1" width="5.1" height="10.4"/>
<rect x="69.7" y="219" class="st1" width="33" height="25.8"/>
<rect x="57.3" y="208.1" class="st1" width="15.6" height="36.7"/>
<rect x="38.4" y="231.9" class="st1" width="26.7" height="12.9"/>
<rect x="68.6" y="175.6" class="st3" width="33.7" height="70.9"/>
<rect x="87.9" y="144.9" class="st3" width="0.7" height="43.3"/>
<rect x="91.4" y="159.6" class="st3" width="0.9" height="25.6"/>
<rect x="86.4" y="164.1" class="st3" width="12.7" height="12.6"/>
<rect x="84.3" y="163.2" class="st3" width="16.8" height="1.1"/>
<rect x="445.9" y="247.8" class="st2" width="79" height="23.4"/>
<rect x="416.3" y="77.4" class="st4" width="42" height="169.7"/>
<polygon class="st2" points="323.6,271.2 266.3,271.2 266.3,139.3 323.6,125.3 "/>
<rect x="263.8" y="137" class="st3" width="5" height="134.2"/>
<rect x="278.1" y="133.2" class="st3" width="5" height="138"/>
<rect x="292.4" y="129.3" class="st3" width="5" height="141.9"/>
<rect x="306.8" y="126.1" class="st3" width="5" height="145.1"/>
<rect x="321.1" y="122.7" class="st3" width="5" height="148.5"/>
<rect x="270.1" y="148.3" class="st3" width="6.7" height="10.2"/>
<rect x="284.5" y="148.3" class="st3" width="6.7" height="10.2"/>
<rect x="298.8" y="148.3" class="st3" width="6.7" height="10.2"/>
<rect x="313.1" y="148.3" class="st3" width="6.7" height="10.2"/>
<rect x="270.1" y="166" class="st3" width="6.7" height="10.2"/>
<rect x="284.5" y="166" class="st3" width="6.7" height="10.2"/>
<rect x="298.8" y="166" class="st3" width="6.7" height="10.2"/>
<rect x="313.1" y="166" class="st3" width="6.7" height="10.2"/>
<rect x="270.1" y="183.7" class="st3" width="6.7" height="10.2"/>
<rect x="284.5" y="183.7" class="st3" width="6.7" height="10.2"/>
<rect x="298.8" y="183.7" class="st3" width="6.7" height="10.2"/>
<rect x="313.1" y="183.7" class="st3" width="6.7" height="10.2"/>
<rect x="270.1" y="201.5" class="st3" width="6.7" height="10.2"/>
<rect x="284.5" y="201.5" class="st3" width="6.7" height="10.2"/>
<rect x="298.8" y="201.5" class="st3" width="6.7" height="10.2"/>
<rect x="313.1" y="201.5" class="st3" width="6.7" height="10.2"/>
<rect x="270.1" y="219.2" class="st3" width="6.7" height="10.2"/>
<rect x="284.5" y="219.2" class="st3" width="6.7" height="10.2"/>
<rect x="298.8" y="219.2" class="st3" width="6.7" height="10.2"/>
<rect x="313.1" y="219.2" class="st3" width="6.7" height="10.2"/>
<rect x="270.1" y="237" class="st3" width="6.7" height="10.2"/>
<rect x="284.5" y="237" class="st3" width="6.7" height="10.2"/>
<rect x="298.8" y="237" class="st3" width="6.7" height="10.2"/>
<rect x="313.1" y="237" class="st3" width="6.7" height="10.2"/>
<rect x="270.1" y="254.7" class="st3" width="6.7" height="10.2"/>
<rect x="284.5" y="254.7" class="st3" width="6.7" height="10.2"/>
<rect x="298.8" y="254.7" class="st3" width="6.7" height="10.2"/>
<rect x="313.1" y="254.7" class="st3" width="6.7" height="10.2"/>
<polygon class="st2" points="223,145.6 223,147 221.6,147 221.6,150.9 245.6,150.9 245.6,271.2 206.3,271.2 206.3,157.2 
	206.3,150.9 206.3,147 204.8,147 204.8,145.6 "/>
<rect x="143.1" y="184" class="st3" width="27.4" height="87.2"/>
<rect x="165.1" y="202.2" class="st3" width="29.9" height="69"/>
<rect x="152.9" y="180.5" class="st3" width="12.1" height="10.4"/>
<rect x="167.1" y="201" class="st3" width="31.9" height="2.6"/>
<rect x="191.7" y="231.8" class="st2" width="33.5" height="39.4"/>
<rect x="83.4" y="199.7" class="st2" width="27.3" height="71.5"/>
<rect x="59.8" y="235.3" class="st2" width="35.9" height="35.9"/>
<rect x="20.3" y="229.5" class="st2" width="22.4" height="41.7"/>
<rect x="38.4" y="258.1" class="st2" width="53" height="13.1"/>
<rect y="253.9" class="st2" width="27.2" height="17.3"/>
<rect x="110.7" y="244.8" class="st2" width="42.2" height="26.4"/>
<rect x="234.6" y="259.8" class="st2" width="65.8" height="11.4"/>
<rect x="351.2" y="259.8" class="st2" width="65.8" height="11.4"/>
<polygon class="st2" points="297.8,226.5 261.2,226.5 245.6,265.5 297.8,265.5 "/>
<rect x="350.8" y="194.3" class="st2" width="26.3" height="70.6"/>
<rect x="499.9" y="262.8" class="st3" width="31.1" height="8.4"/>
<rect x="320.5" y="234.6" class="st3" width="40.9" height="36.6"/>
<rect x="821.4" y="198.9" class="st3" width="33.7" height="70.9"/>
<polygon class="st3" points="829.1,225.1 804.1,225.1 793.5,264.1 829.1,264.1 "/>
<rect x="840.7" y="168.3" class="st3" width="0.7" height="43.3"/>
<rect x="844.1" y="182.9" class="st3" width="0.9" height="25.6"/>
<rect x="839.2" y="187.5" class="st3" width="12.7" height="12.6"/>
<rect x="837" y="186.5" class="st3" width="16.8" height="1.1"/>
<polygon class="st5" points="975.3,269.8 917.9,269.8 917.9,137.9 975.3,123.9 "/>
<rect x="915.4" y="135.6" class="st4" width="5" height="134.2"/>
<rect x="929.8" y="131.8" class="st4" width="5" height="138"/>
<rect x="944.1" y="127.9" class="st4" width="5" height="141.9"/>
<rect x="958.4" y="124.7" class="st4" width="5" height="145.1"/>
<rect x="972.8" y="121.3" class="st4" width="5" height="148.5"/>
<rect x="921.8" y="146.9" class="st1" width="6.7" height="10.2"/>
<rect x="936.1" y="146.9" class="st1" width="6.7" height="10.2"/>
<rect x="950.4" y="146.9" class="st1" width="6.7" height="10.2"/>
<rect x="964.8" y="146.9" class="st1" width="6.7" height="10.2"/>
<rect x="921.8" y="164.6" class="st1" width="6.7" height="10.2"/>
<rect x="936.1" y="164.6" class="st1" width="6.7" height="10.2"/>
<rect x="950.4" y="164.6" class="st1" width="6.7" height="10.2"/>
<rect x="964.8" y="164.6" class="st1" width="6.7" height="10.2"/>
<rect x="921.8" y="182.4" class="st1" width="6.7" height="10.2"/>
<rect x="936.1" y="182.4" class="st1" width="6.7" height="10.2"/>
<rect x="950.4" y="182.4" class="st1" width="6.7" height="10.2"/>
<rect x="964.8" y="182.4" class="st1" width="6.7" height="10.2"/>
<rect x="921.8" y="200.1" class="st1" width="6.7" height="10.2"/>
<rect x="936.1" y="200.1" class="st1" width="6.7" height="10.2"/>
<rect x="950.4" y="200.1" class="st1" width="6.7" height="10.2"/>
<rect x="964.8" y="200.1" class="st1" width="6.7" height="10.2"/>
<rect x="921.8" y="217.9" class="st1" width="6.7" height="10.2"/>
<rect x="936.1" y="217.9" class="st1" width="6.7" height="10.2"/>
<rect x="950.4" y="217.9" class="st1" width="6.7" height="10.2"/>
<rect x="964.8" y="217.9" class="st1" width="6.7" height="10.2"/>
<rect x="921.8" y="235.6" class="st1" width="6.7" height="10.2"/>
<rect x="936.1" y="235.6" class="st1" width="6.7" height="10.2"/>
<rect x="950.4" y="235.6" class="st1" width="6.7" height="10.2"/>
<rect x="964.8" y="235.6" class="st1" width="6.7" height="10.2"/>
<rect x="921.8" y="253.4" class="st1" width="6.7" height="10.2"/>
<rect x="936.1" y="253.4" class="st1" width="6.7" height="10.2"/>
<rect x="950.4" y="253.4" class="st1" width="6.7" height="10.2"/>
<rect x="964.8" y="253.4" class="st1" width="6.7" height="10.2"/>
<rect x="882.5" y="258.5" class="st3" width="65.8" height="11.4"/>
<rect x="882.1" y="199.2" class="st2" width="26.3" height="70.6"/>
<rect x="984.6" y="206.2" class="st2" width="42" height="63.6"/>
<rect x="971.5" y="246.4" class="st3" width="47.8" height="23.4"/>
<rect x="1072.2" y="246.4" class="st3" width="50.6" height="23.4"/>
<rect x="1090.7" y="181.8" class="st2" width="68.2" height="3.3"/>
<rect x="1124.8" y="173" class="st2" width="27.7" height="17.2"/>
<rect x="1111.1" y="173" class="st2" width="4.7" height="10.4"/>
<rect x="1101.4" y="173" class="st2" width="5.1" height="10.4"/>
<rect x="1092.3" y="185.1" class="st1" width="62.9" height="84.8"/>
<rect x="1198.5" y="146" class="st3" width="49.8" height="123.8"/>
<rect x="1197.1" y="143.9" class="st3" width="52.7" height="3.5"/>
<rect x="1200.2" y="139.4" class="st3" width="46.5" height="16.6"/>
<rect x="1224.7" y="132.6" class="st3" width="18.4" height="18.2"/>
<polygon class="st3" points="1232.5,137.7 1243.1,137.7 1243.1,128.2 1235.5,128.2 "/>
<rect x="1237.8" y="120.2" class="st3" width="1" height="21.3"/>
<ellipse class="st3" cx="1238.3" cy="119.1" rx="0.9" ry="1.1"/>
<rect x="1241.5" y="218.7" class="st3" width="22.3" height="51.1"/>
<rect x="1178" y="193.8" class="st3" width="25.4" height="76"/>
<polygon class="st1" points="1190.8,269.8 1154.9,269.8 1154.9,229.2 1185.2,242.6 "/>
<rect x="849" y="233.2" class="st3" width="40.9" height="36.6"/>
<rect x="765.9" y="258.5" class="st3" width="65.8" height="11.4"/>
<rect x="1256.5" y="249.1" class="st2" width="54.7" height="22.1"/>
<rect x="1291" y="183" class="st2" width="31.8" height="88.2"/>
<rect x="1315.4" y="254.3" class="st2" width="52.6" height="16.5"/>
<rect x="1289.4" y="181.4" class="st2" width="34.9" height="2.9"/>
<rect x="1317.8" y="169" class="st2" width="0.7" height="17.8"/>
<rect x="1313.2" y="171.2" class="st2" width="0.7" height="14.3"/>
<polygon class="st2" points="1334.6,216.3 1320.4,216.3 1320.4,256.6 1340.6,256.6 "/>
<rect x="601" y="224.3" class="st6" width="61.4" height="43.6"/>
<rect x="575.8" y="260.6" class="st7" width="111.7" height="9.2"/>
<path class="st8" d="M763.2,232.9c0,2-1.7,3.6-3.7,3.6H503.9c-2,0-3.7-1.6-3.7-3.6V48.7c0-2,1.7-3.6,3.7-3.6h255.7
	c2,0,3.7,1.6,3.7,3.6L763.2,232.9z"/>
<path class="st7" d="M763.2,205.9V48.7c0-2-1.7-3.6-3.7-3.6H503.9c-2,0-3.7,1.6-3.7,3.6v157.2H763.2z"/>
<rect x="511.8" y="55.9" class="st9" width="239.9" height="139.1"/>
<path class="st10" d="M551.9,157.4v11.4h-5.2v-31.3h9.5c3.6,0,6.4,0.8,8.4,2.5c2,1.8,3.1,4.4,3,7.1c0.1,2.8-1,5.5-3.1,7.5
	c-2.3,2-5.3,3.1-8.4,2.9L551.9,157.4L551.9,157.4z M551.9,141.7v11.4h3.4c1.8,0.1,3.6-0.4,5.1-1.6c1.2-1.1,1.8-2.7,1.8-4.4
	c0-3.7-2.1-5.5-6.4-5.5h-3.9V141.7z"/>
<path class="st10" d="M580.7,169.2c-3.1,0.1-6.1-1-8.3-3.1c-2.1-2.2-3.2-5.2-3.1-8.3c0-3.8,1.1-6.7,3.2-8.8c2.3-2.2,5.5-3.3,8.7-3.2
	c3.5,0,6.2,1,8.2,3.1s2.9,4.9,2.9,8.5c0.2,3.2-1,6.3-3.2,8.6C586.9,168.2,583.9,169.4,580.7,169.2z M580.9,149.9
	c-1.8-0.1-3.5,0.7-4.7,2.1c-1.2,1.6-1.8,3.7-1.7,5.7c-0.1,2,0.5,4,1.8,5.5c1.2,1.3,2.9,2.1,4.7,2c1.8,0.1,3.5-0.6,4.6-2
	c1.2-1.6,1.7-3.6,1.6-5.7c0.1-2-0.4-4-1.6-5.7C584.4,150.5,582.7,149.8,580.9,149.9z"/>
<path class="st10" d="M627.6,146.3l-6.6,22.4h-5.3l-4.1-15.2c-0.2-0.7-0.3-1.3-0.3-2h-0.1c-0.1,0.7-0.2,1.3-0.4,1.9l-4.4,15.2h-5.2
	l-6.6-22.4h5.2l4.1,16.1c0.2,0.6,0.2,1.3,0.3,1.9h0.2c0.1-0.7,0.2-1.3,0.3-2l4.5-16.1h4.8l4,16.2c0.1,0.6,0.2,1.3,0.3,1.9h0.2
	c0-0.6,0.2-1.3,0.3-1.9l4-16.2L627.6,146.3z"/>
<path class="st10" d="M650.1,158.9h-15.3c-0.1,1.8,0.6,3.5,1.9,4.8c1.4,1.2,3.2,1.8,5,1.7c2.4,0,4.7-0.7,6.6-2.1v4.1
	c-2.5,1.4-5.3,2.1-8.1,1.9c-2.9,0.2-5.7-0.9-7.8-3c-1.9-2-2.8-4.9-2.8-8.6c-0.1-3.1,1-6.2,3.1-8.5c2-2.2,4.8-3.4,7.7-3.3
	c2.7-0.2,5.3,0.9,7.1,2.9c1.7,2,2.5,4.7,2.5,8.2L650.1,158.9z M645.2,155.3c0.1-1.5-0.4-3-1.3-4.3c-0.9-1-2.2-1.6-3.5-1.5
	c-1.4,0-2.8,0.6-3.7,1.6c-1.1,1.2-1.7,2.6-1.9,4.2H645.2z"/>
<path class="st10" d="M667.9,151.2c-0.8-0.5-1.7-0.8-2.6-0.7c-1.5,0-2.9,0.7-3.8,2c-1.1,1.6-1.6,3.6-1.5,5.6v10.7h-5.1v-22.4h5.1
	v4.6h0.1c0.4-1.4,1.2-2.7,2.3-3.7c0.9-0.8,2.2-1.3,3.4-1.3c0.7,0,1.4,0.1,2.1,0.4V151.2z"/>
<path class="st10" d="M684.3,168.7v-31.3h9.9c2.6-0.1,5.1,0.6,7.2,2c1.7,1.2,2.7,3.1,2.7,5.2c0,1.7-0.5,3.3-1.5,4.6
	c-1.1,1.3-2.5,2.3-4.2,2.8v0.1c2,0.2,3.8,1,5.2,2.4c1.3,1.4,2,3.3,1.9,5.3c0.1,2.6-1.1,5-3.2,6.5c-2.3,1.7-5.1,2.6-8,2.5
	L684.3,168.7z M689.5,141.6v8.9h3.4c1.5,0.1,3-0.4,4.3-1.3c1-0.9,1.6-2.2,1.5-3.6c0-2.7-1.8-4-5.4-4L689.5,141.6z M689.5,154.6v9.9
	h4.5c1.6,0.1,3.2-0.4,4.5-1.3c1.1-0.9,1.6-2.3,1.6-3.7c0-3.2-2.3-4.9-6.8-4.9H689.5z"/>
<path class="st10" d="M716.7,168.7h-5.3v-31.3h5.3V168.7z"/>
<g>
	<g>
		<defs>
			<rect id="SVGID_1_" x="571.1" width="121.2" height="121.2"/>
		</defs>
		<clipPath id="SVGID_2_">
			<use xlink:href="#SVGID_1_"  style="overflow:visible;"/>
		</clipPath>
		<g class="st11">
			<g>
				
					<linearGradient id="SVGID_3_" gradientUnits="userSpaceOnUse" x1="628.6997" y1="499.3788" x2="681.9797" y2="386.4588" gradientTransform="matrix(1 0 0 -1 0 500)">
					<stop  offset="0" style="stop-color:#E6AD10"/>
					<stop  offset="1" style="stop-color:#C87E0E"/>
				</linearGradient>
				<path class="st12" d="M677.2,0v121.2h-40.4V0H677.2z"/>
				<path class="st13" d="M651.9,35.8v85.8h-40.4V30.8h35.3C649.6,30.8,651.8,33,651.9,35.8C651.9,35.8,651.9,35.8,651.9,35.8z"/>
				<path class="st14" d="M651.9,37.9v85.9h-40.4v-91h35.3c2.8,0,5,2.2,5.1,4.9C651.9,37.8,651.9,37.8,651.9,37.9z"/>
				
					<linearGradient id="SVGID_4_" gradientUnits="userSpaceOnUse" x1="608.1829" y1="467.9897" x2="652.9829" y2="381.0997" gradientTransform="matrix(1 0 0 -1 0 500)">
					<stop  offset="0" style="stop-color:#F6D751"/>
					<stop  offset="1" style="stop-color:#E6AD10"/>
				</linearGradient>
				<path class="st15" d="M651.9,35.3v85.8h-40.4V30.3h35.3C649.6,30.3,651.8,32.5,651.9,35.3C651.9,35.3,651.9,35.3,651.9,35.3z"/>
				
					<linearGradient id="SVGID_5_" gradientUnits="userSpaceOnUse" x1="591.871" y1="441.7502" x2="616.621" y2="383.0801" gradientTransform="matrix(1 0 0 -1 0 500)">
					<stop  offset="0" style="stop-color:#F9E589"/>
					<stop  offset="1" style="stop-color:#F6D751"/>
				</linearGradient>
				<path class="st16" d="M586.3,60.6v60.6h40.4V65.7c0-2.8-2.2-5-5-5L586.3,60.6z"/>
			</g>
		</g>
	</g>
</g>
<rect x="403" y="61.9" class="st17" width="10.3" height="10.3"/>
<rect x="358.8" y="86.6" class="st17" width="10.3" height="10.3"/>
<rect x="403" y="89.1" class="st8" width="10.3" height="10.3"/>
<rect x="403" y="102.5" class="st7" width="10.3" height="10.3"/>
<rect x="378.1" y="172.9" class="st7" width="10.3" height="10.3"/>
<rect x="403" y="116.1" class="st17" width="10.3" height="10.3"/>
<rect x="389.3" y="102.5" class="st17" width="10.3" height="10.3"/>
<rect x="403" y="129.6" class="st18" width="10.3" height="10.3"/>
<rect x="403" y="143.3" class="st8" width="10.3" height="10.3"/>
<rect x="338.1" y="124.7" class="st8" width="10.3" height="10.3"/>
<rect x="416.8" y="61.9" class="st7" width="10.3" height="10.3"/>
<rect x="416.8" y="75.5" class="st17" width="10.3" height="10.3"/>
<rect x="416.8" y="89.1" class="st19" width="10.3" height="10.3"/>
<rect x="416.8" y="102.5" class="st7" width="10.3" height="10.3"/>
<rect x="416.8" y="116.1" class="st8" width="10.3" height="10.3"/>
<rect x="416.8" y="129.6" class="st19" width="10.3" height="10.3"/>
<rect x="416.8" y="143.3" class="st20" width="10.3" height="10.3"/>
<rect x="389.3" y="143.3" class="st7" width="10.3" height="10.3"/>
<rect x="358.8" y="201.7" class="st17" width="10.3" height="10.3"/>
<rect x="105.6" y="162.9" class="st21" width="10.3" height="10.3"/>
<rect x="156.6" y="97.4" class="st17" width="10.3" height="10.3"/>
<rect x="172.8" y="252.9" class="st18" width="10.3" height="10.3"/>
<rect x="61.8" y="215.4" class="st8" width="10.3" height="10.3"/>
<rect x="327.7" y="252.9" class="st7" width="10.3" height="10.3"/>
<rect x="240.9" y="175.9" class="st20" width="10.3" height="10.3"/>
<rect x="282.7" y="210.9" class="st7" width="10.3" height="10.3"/>
<rect x="416.8" y="27.8" class="st19" width="10.3" height="10.3"/>
<rect x="443.9" y="75.5" class="st8" width="10.3" height="10.3"/>
<rect x="443.9" class="st19" width="10.3" height="10.3"/>
<rect x="443.9" y="89.1" class="st19" width="10.3" height="10.3"/>
<rect x="443.9" y="102.5" class="st19" width="10.3" height="10.3"/>
<rect x="443.9" y="116.1" class="st21" width="10.3" height="10.3"/>
<rect x="372.9" y="129.6" class="st19" width="10.3" height="10.3"/>
<rect x="443.9" y="129.6" class="st17" width="10.3" height="10.3"/>
<rect x="443.9" y="143.3" class="st7" width="10.3" height="10.3"/>
<rect x="430.3" y="61.9" class="st20" width="10.3" height="10.3"/>
<rect x="430.3" y="75.5" class="st7" width="10.3" height="10.3"/>
<rect x="443.9" y="48.3" class="st7" width="10.3" height="10.3"/>
<rect x="430.3" y="89.1" class="st8" width="10.3" height="10.3"/>
<rect x="430.3" y="102.5" class="st7" width="10.3" height="10.3"/>
<rect x="430.3" y="116.1" class="st19" width="10.3" height="10.3"/>
<rect x="430.3" y="129.6" class="st8" width="10.3" height="10.3"/>
<rect x="430.3" y="156.5" class="st8" width="10.3" height="10.3"/>
<rect x="457.6" y="95.6" class="st8" width="10.3" height="10.3"/>
<rect x="457.6" y="156.5" class="st19" width="10.3" height="10.3"/>
<rect x="457.6" y="82" class="st19" width="10.3" height="10.3"/>
<rect x="457.6" y="68.6" class="st19" width="10.3" height="10.3"/>
<rect x="457.6" y="55" class="st21" width="10.3" height="10.3"/>
<rect x="457.6" y="41.5" class="st17" width="10.3" height="10.3"/>
<rect x="457.6" y="27.8" class="st7" width="10.3" height="10.3"/>
<rect x="471.2" y="245.2" class="st21" width="10.3" height="10.3"/>
<rect x="514.8" y="27.8" class="st17" width="10.3" height="10.3"/>
<rect x="471.2" y="95.6" class="st7" width="10.3" height="10.3"/>
<rect x="430.6" y="289.7" class="st7" width="10.3" height="10.3"/>
<rect x="430.6" y="170.2" class="st7" width="10.3" height="10.3"/>
<rect x="430.6" y="183.8" class="st17" width="10.3" height="10.3"/>
<rect x="416.9" y="170.2" class="st17" width="10.3" height="10.3"/>
<rect x="430.6" y="197.4" class="st8" width="10.3" height="10.3"/>
<rect x="430.6" y="211" class="st18" width="10.3" height="10.3"/>
<rect x="395.6" y="211" class="st8" width="10.3" height="10.3"/>
<rect x="444.4" y="170.2" class="st7" width="10.3" height="10.3"/>
<rect x="444.4" y="183.8" class="st8" width="10.3" height="10.3"/>
<rect x="444.4" y="197.4" class="st19" width="10.3" height="10.3"/>
<rect x="444.4" y="211" class="st7" width="10.3" height="10.3"/>
<rect x="471.5" y="170.2" class="st19" width="10.3" height="10.3"/>
<rect x="471.5" y="183.8" class="st21" width="10.3" height="10.3"/>
<rect x="400.5" y="183.8" class="st19" width="10.3" height="10.3"/>
<rect x="471.5" y="197.4" class="st17" width="10.3" height="10.3"/>
<rect x="471.5" y="211" class="st7" width="10.3" height="10.3"/>
<rect x="457.9" y="170.2" class="st7" width="10.3" height="10.3"/>
<rect x="457.9" y="183.8" class="st19" width="10.3" height="10.3"/>
<rect x="457.9" y="197.4" class="st8" width="10.3" height="10.3"/>
<rect x="457.9" y="224.2" class="st8" width="10.3" height="10.3"/>
<rect x="471.5" y="129.6" class="st19" width="10.3" height="10.3"/>
<rect x="457.6" y="143.3" class="st18" width="10.3" height="10.3"/>
<rect x="471.2" y="143.3" class="st8" width="10.3" height="10.3"/>
<rect x="471.2" y="82" class="st8" width="10.3" height="10.3"/>
<rect x="471.2" y="68.6" class="st18" width="10.3" height="10.3"/>
<rect x="471.2" y="55" class="st19" width="10.3" height="10.3"/>
<rect x="471.2" y="41.5" class="st8" width="10.3" height="10.3"/>
<rect x="471.2" y="14.6" class="st8" width="10.3" height="10.3"/>
<rect x="297.2" y="156.9" class="st21" width="10.3" height="10.3"/>
<path class="st17" d="M901,93.5c0,15.5,3.8,30.8,11.2,44.4l28.8-15.5c-15.9-29.6-4.9-66.5,24.7-82.4c8.5-4.6,17.9-7.1,27.5-7.3
	L993,0C942,0.8,901,42.4,901,93.5z"/>
<path class="st17" d="M1043.3,57.3l8.2-6.1L1043.3,57.3L1043.3,57.3z"/>
<path class="st21" d="M994.4,154.3c-22.4,0-42.9-12.3-53.5-31.9l-28.8,15.5c24.5,45.4,81.3,62.4,126.7,37.8
	c14.1-7.6,26.1-18.8,34.6-32.4l-27.6-17.4C1034.7,143.6,1015.3,154.3,994.4,154.3z"/>
<path class="st8" d="M1051.5,51.2l-8.2,6.1c14.8,20.1,15.9,47.1,2.8,68.3l27.7,17.3c20.2-32.5,18.6-74-4.1-104.8L1051.5,51.2z"/>
<path class="st8" d="M1045.9,125.9l27.6,17.4l0.3-0.5l-27.7-17.3L1045.9,125.9z"/>
<path class="st7" d="M994.4,0H993l0.2,32.7h1.3c19.2,0,37.3,9.1,48.8,24.5l8.3-6l18-13.3C1051.9,14,1024.1,0,994.4,0z"/>
<path class="st7" d="M1051.5,51.2l18.2-13.1l-0.2-0.2L1051.5,51.2z"/>
<path class="st17" d="M935.4,189.5c-19.4-0.8-29.7-21.9-38.3-32.4s-22.4-12.1-37.8,1.4s-16.5,44.2-31.3,63.4s-32.9,17.5-51.6,22.1
	s-19.6,24.2-19.6,24.2l221.6,0.2L977.1,163C977.1,163,954.8,190.3,935.4,189.5z"/>
<path class="st19" d="M1069.7,49.3h97.4c1.1,0,2.1,0.9,2.1,2.1v56.5c0,1.1-0.9,2.1-2.1,2.1h-97.4c-1.1,0-2.1-0.9-2.1-2.1V51.4
	C1067.6,50.2,1068.5,49.3,1069.7,49.3z"/>
<path class="st7" d="M969.3,256.4c0,0-0.6,3-0.8,5.6s-0.3,6.4-0.3,6.4l12.4-0.2c0.2-3.8,0-7.7-0.6-11.5L969.3,256.4z"/>
<path class="st22" d="M984,99.8h-33c-0.4,0-0.8,0.3-0.8,0.8c0,0.4,0.3,0.8,0.8,0.8l0,0h33c0.4,0,0.8-0.3,0.8-0.8
	C984.8,100.2,984.4,99.8,984,99.8z"/>
<path class="st22" d="M984,106.2h-33c-0.4,0-0.8,0.3-0.8,0.8c0,0.4,0.3,0.8,0.8,0.8l0,0h33c0.4,0,0.8-0.3,0.8-0.8
	S984.4,106.2,984,106.2z"/>
<path class="st22" d="M984,112.7h-33c-0.4,0-0.8,0.3-0.8,0.8c0,0.4,0.3,0.8,0.8,0.8l0,0h33c0.4,0,0.8-0.3,0.8-0.8
	C984.8,113.1,984.4,112.7,984,112.7z"/>
<path class="st19" d="M995.5,98h39.2c1.5,0,2.7,1.2,2.7,2.7v26.4c0,1.5-1.2,2.7-2.7,2.7h-39.2c-1.5,0-2.7-1.2-2.7-2.7v-26.4
	C992.8,99.2,994,98,995.5,98z"/>
<path class="st18" d="M1167.9,257.4h-9.3c0,0,1,2.7,0.4,4.6c-0.5,2-0.9,4.1-1.2,6.2h10.5c-0.2-1.8-0.6-3.6-1-5.4
	C1167,261.6,1167.9,257.4,1167.9,257.4z"/>
<path class="st23" d="M998.7,96.7c-3.2-0.3-6.5-0.2-9.7,0.3c0,0-1.1,7.1-3.2,10.1c6.7,2.4,16.3-0.1,16.3-0.1S998.6,101.6,998.7,96.7
	z"/>
<path class="st7" d="M1022.6,256.5l-9.3,2.4c0.3,1,0.5,2,0.5,3c0.1,0.7,0,2.9-0.1,6.3h10c0,0,1-3.6-0.1-6.2
	C1022.9,260.2,1022.6,258.3,1022.6,256.5z"/>
<path class="st18" d="M1019.3,239.6c0.5-4.4-1.3-11.3-2.4-16.6s-3.9-11.9-3.8-18.3s1.3-16.3,0.5-20.4s-1.5-19.2-1.5-19.2l-36.8-0.6
	c0,0-1,6.8-1.9,15.1s0.1,24.1-0.8,29.4s-2.6,15.1-3,20.3s-0.6,28.3-0.6,28.3c4.1,1.2,7.8,1.1,10.9-1c0,0,0.7-10,1.6-19.1
	c0.7-6.5-0.2-8.1,1.8-12.4s2.6-12.8,3.6-18.1s1.7-20.5,6.2-23.6c3.7,6.8,6.5,11.7,6.8,17.3s0.7,12,2.3,17.7s3.5,12,3.9,16.7
	s1,6.3,2.7,11.1s4.2,12.2,4.2,12.2s3.1,2.2,5.9,1.2c1.7-0.6,3.1-1.9,3.9-3.6C1022.8,256.1,1018.8,244,1019.3,239.6z"/>
<path class="st7" d="M1124.5,75.5c-1.2,0-2.1,1-2.1,2.1l0,0V98c0.1,1.2,1.1,2.1,2.3,2c1.1-0.1,1.9-0.9,2-2V77.6
	C1126.6,76.4,1125.6,75.5,1124.5,75.5z"/>
<path class="st7" d="M1017.8,116.3c-2.9-2.1-16.7-10.8-16.7-10.8c-4.7,1.4-9.6,1.1-14.1-0.8c0,0-15.7,5.7-17.8,11.3
	s-5.4,26.3-5.4,30.2s3.8,6.8,6.6,8.8s5.1,3.8,5.1,3.8v5.9c0,0,5.1,9.3,18.2,9.3c11.2,0,18.6-8.7,18.6-8.7v-8c0,0,12.2-5.4,12.8-8.9
	S1020.7,118.4,1017.8,116.3z M976.5,148.5c0,0-3.3-3.8-3.3-4.7s3.9-9.1,3.9-9.1L976.5,148.5z M1011.5,148.5v-13.9
	c0,0,4.2,8.9,4.2,9.8S1011.5,148.5,1011.5,148.5L1011.5,148.5z"/>
<path class="st1" d="M795.4,299.3c35.4,4.5,60.1-14.6,89-15.1s34.2,12.2,65.1,13.9s37.5-13.9,61.4-13.5s29.2,10.6,52.3,13.1
	s37.9-12.2,56.8-13.1s59.8,17.2,87.6-13.7v-1.8H728.1C728.1,269.1,759.9,294.8,795.4,299.3z"/>
<path class="st24" d="M976.5,148.5L976.5,148.5L976.5,148.5L976.5,148.5"/>
<path class="st22" d="M1010.3,61.2h-33c-0.4,0-0.8,0.3-0.8,0.8s0.3,0.8,0.8,0.8h33c0.4,0,0.8-0.3,0.8-0.8S1010.7,61.2,1010.3,61.2
	L1010.3,61.2z"/>
<path class="st22" d="M1010.3,67.5h-33c-0.4,0-0.8,0.3-0.8,0.8c0,0.4,0.3,0.8,0.8,0.8h33c0.4,0,0.8-0.3,0.8-0.8
	C1011,67.9,1010.7,67.5,1010.3,67.5L1010.3,67.5z"/>
<path class="st22" d="M1010.3,74.1h-33c-0.4,0-0.8,0.3-0.8,0.8c0,0.4,0.3,0.8,0.8,0.8h33c0.4,0,0.8-0.3,0.8-0.8
	C1011,74.4,1010.7,74.1,1010.3,74.1L1010.3,74.1z"/>
<path class="st22" d="M1010.3,80.4h-33c-0.4,0-0.8,0.3-0.8,0.8c0,0.4,0.3,0.8,0.8,0.8h33c0.4,0,0.8-0.3,0.8-0.8
	C1011,80.8,1010.7,80.4,1010.3,80.4L1010.3,80.4z"/>
<path class="st22" d="M1010.3,86.8h-33c-0.4,0-0.8,0.3-0.8,0.8c0,0.4,0.3,0.8,0.8,0.8h33c0.4,0,0.8-0.3,0.8-0.8
	C1011,87.2,1010.7,86.8,1010.3,86.8L1010.3,86.8z"/>
<path class="st23" d="M1189.5,178.9c3.3-1.3,6.3-6.7,6.3-6.7l-5.2-6.6C1189.7,169.9,1189.4,174.4,1189.5,178.9z"/>
<path class="st18" d="M1190.2,262.8c0-1.4,0.2-2.8,0.5-4.1l-9.6,0.5c0.4,1.2,0.7,2.5,0.6,3.8c-0.2,1.6-0.6,5.2-0.6,5.2h10.5
	C1190.8,266.5,1190.3,264.6,1190.2,262.8z"/>
<path class="st23" d="M1166.8,84.9c0,0-1.8,9.2-1.8,13s3.8,4,3.8,4l-0.6,4.2c0,0,5.2,1.9,7.6,0S1179.1,85.2,1166.8,84.9z"/>
<path class="st7" d="M1190.2,225.9c-0.3-5-1.3-18-1.3-23.6s2-19,2.3-25.6c0-5.5-0.3-10.9-1-16.4c0,0-12.3,1.1-20.6,0.9
	s-10.3-0.6-10.3-0.6s-2,11.5-2.5,19.4s1.1,31.3,1.7,34.1s1.2,8,0,17.4s0.3,26,0.3,26c1.5,0.9,3.1,1.4,4.9,1.5c1.6,0,3.1-0.6,4.4-1.5
	c0,0,0.1-17.6,0.8-24.2s1.7-16.8,2.6-22.4s1.1-20.7,2.3-28.7c1.7,0.9,4.1,21.3,4.4,25.1s2,26.7,1.6,32.7s1.4,19.2,1.4,19.2
	c1.6,0.4,3.2,0.6,4.8,0.7c1.7-0.2,3.3-0.6,4.8-1.2c0.6-3.7,0.8-7.5,0.6-11.3C1191,240.8,1190.5,230.9,1190.2,225.9z"/>
<path class="st18" d="M1002.4,85.8c0.2-2.5-1.6-7.7-9.6-6c0,0-3.3,0.1-5,2s-3.1,2.2-2.7,5.7s1.3,3.1,0.8,5.6s-0.7,4.1,0.9,5.3
	s2.5,1.4,3.2,3.2s5.5,2.1,7.6,1.2s1.7-4.4,3.7-5.1s2.8-3.8,2.5-5.9S1002.3,88.3,1002.4,85.8z"/>
<path class="st23" d="M984.3,166.8c1.9,1.5,4.4,2,6.7,1.4c-1.6-1.5-6.3-4.7-8-5.2C982.5,164.4,983.1,166,984.3,166.8z"/>
<path class="st25" d="M997,163.6c-2.9-1.8-6-3.1-9.3-3.9c-1.3-0.2-5-3.9-5-3.9l-3.7,4.9c1.5,1.1,3.2,2.2,4.9,3
	c2,0.8,5.6,4.4,7.6,4.7s2.8,1.4,4.5,1.9s4.3-0.6,3.5-2.6S998.9,164.9,997,163.6z"/>
<path class="st23" d="M994.6,158.9c-1.3,0.2-4.9-1.2-6.8-1.6s-3.8,0.8-3.8,1.6s0.3,1.1,2.8,1.4s3.8,1.2,5.5,1.5s6.2,3.5,6.2,3.5
	l4.6-2.2l-3.8-5.7C997.8,157.8,996.2,158.4,994.6,158.9z"/>
<path class="st21" d="M943.6,242.4c-0.4,0-0.8,0.3-0.8,0.8l0,0v1.5c0,0.4,0.3,0.8,0.8,0.8c0.4,0,0.8-0.3,0.8-0.8l0,0v-1.5
	C944.4,242.7,944.1,242.4,943.6,242.4z"/>
<path class="st21" d="M943.6,236.5c-0.4,0-0.8,0.3-0.8,0.8l0,0v1.5c0,0.4,0.3,0.8,0.8,0.8c0.4,0,0.8-0.3,0.8-0.8l0,0v-1.5
	C944.4,236.9,944.1,236.5,943.6,236.5z"/>
<path class="st21" d="M943.6,230.7c-0.4,0-0.8,0.3-0.8,0.8l0,0v1.6c0,0.4,0.3,0.8,0.8,0.8c0.4,0,0.8-0.3,0.8-0.8l0,0v-1.5
	C944.4,231,944.1,230.7,943.6,230.7C943.7,230.7,943.6,230.7,943.6,230.7z"/>
<path class="st21" d="M943.6,254c-0.4,0-0.8,0.3-0.8,0.8l0,0v1.5c0,0.4,0.3,0.8,0.8,0.8c0.4,0,0.8-0.3,0.8-0.8l0,0v-1.5
	C944.4,254.3,944.1,254,943.6,254z"/>
<path class="st21" d="M943.6,259.9c-0.4,0-0.8,0.3-0.8,0.8l0,0v1.5c0,0.4,0.3,0.8,0.8,0.8c0.4,0,0.8-0.3,0.8-0.8v-1.5
	C944.4,260.2,944.1,259.9,943.6,259.9z"/>
<path class="st21" d="M943.6,224.8c-0.4,0-0.8,0.3-0.8,0.8l0,0v1.5c0,0.4,0.3,0.8,0.8,0.8c0.4,0,0.8-0.3,0.8-0.8l0,0v-1.5
	C944.4,225.2,944.1,224.8,943.6,224.8z"/>
<path class="st21" d="M943.6,248.2c-0.4,0-0.8,0.3-0.8,0.8l0,0v1.5c0,0.4,0.3,0.8,0.8,0.8c0.4,0,0.8-0.3,0.8-0.8l0,0V249
	C944.4,248.6,944.1,248.2,943.6,248.2C943.7,248.2,943.7,248.2,943.6,248.2z"/>
<path class="st21" d="M943.6,265.7c-0.4,0-0.8,0.3-0.8,0.8l0,0v1.5c0,0.4,0.3,0.8,0.8,0.8c0.4,0,0.8-0.3,0.8-0.8v-1.5
	C944.4,266.1,944,265.7,943.6,265.7z"/>
<path class="st21" d="M943.6,219c-0.4,0-0.8,0.3-0.8,0.8l0,0v1.5c0,0.4,0.3,0.8,0.8,0.8c0.4,0,0.8-0.3,0.8-0.8l0,0v-1.5
	C944.4,219.3,944.1,219,943.6,219z"/>
<path class="st21" d="M943.6,183.9c-0.4,0-0.8,0.3-0.8,0.8l0,0v1.5c0,0.4,0.3,0.8,0.8,0.8c0.4,0,0.8-0.3,0.8-0.8l0,0v-1.5
	C944.4,184.3,944.1,183.9,943.6,183.9z"/>
<path class="st21" d="M943.6,195.6c-0.4,0-0.8,0.3-0.8,0.8l0,0v1.5c0,0.4,0.3,0.8,0.8,0.8c0.4,0,0.8-0.3,0.8-0.8l0,0v-1.5
	C944.4,195.9,944.1,195.6,943.6,195.6z"/>
<path class="st21" d="M943.6,178.1c-0.4,0-0.8,0.3-0.8,0.8l0,0v1.5c0,0.4,0.3,0.8,0.8,0.8c0.4,0,0.8-0.3,0.8-0.8l0,0v-1.5
	C944.4,178.4,944.1,178.1,943.6,178.1z"/>
<path class="st21" d="M943.6,189.8c-0.4,0-0.8,0.3-0.8,0.8l0,0v1.5c0,0.4,0.3,0.8,0.8,0.8c0.4,0,0.8-0.3,0.8-0.8l0,0v-1.5
	C944.4,190.1,944.1,189.8,943.6,189.8z"/>
<path class="st21" d="M943.6,213.1c-0.4,0-0.8,0.3-0.8,0.8l0,0v1.5c0,0.4,0.3,0.8,0.8,0.8c0.4,0,0.8-0.3,0.8-0.8l0,0v-1.5
	C944.4,213.5,944.1,213.1,943.6,213.1z"/>
<path class="st21" d="M943.6,207.3c-0.4,0-0.8,0.3-0.8,0.8l0,0v1.5c0,0.4,0.3,0.8,0.8,0.8c0.4,0,0.8-0.3,0.8-0.8l0,0v-1.5
	C944.4,207.6,944.1,207.3,943.6,207.3z"/>
<path class="st21" d="M943.6,201.4c-0.4,0-0.8,0.3-0.8,0.8l0,0v1.5c0,0.4,0.3,0.8,0.8,0.8c0.4,0,0.8-0.3,0.8-0.8l0,0v-1.5
	C944.4,201.8,944.1,201.4,943.6,201.4z"/>
<path class="st21" d="M910.8,226.5c-0.4,0-0.8,0.3-0.8,0.8l0,0v1.5c0,0.4,0.3,0.8,0.8,0.8c0.4,0,0.8-0.3,0.8-0.8l0,0v-1.5
	C911.5,226.9,911.2,226.5,910.8,226.5z"/>
<path class="st21" d="M910.8,214.8c-0.4,0-0.8,0.3-0.8,0.8l0,0v1.5c0,0.4,0.3,0.8,0.8,0.8c0.4,0,0.8-0.3,0.8-0.8v-1.5
	C911.5,215.2,911.2,214.8,910.8,214.8z"/>
<path class="st21" d="M910.8,220.7c-0.4,0-0.8,0.3-0.8,0.8l0,0v1.6c0,0.4,0.3,0.8,0.8,0.8c0.4,0,0.8-0.3,0.8-0.8v-1.5
	C911.6,221,911.2,220.7,910.8,220.7L910.8,220.7z"/>
<path class="st21" d="M910.8,232.4c-0.4,0-0.8,0.3-0.8,0.8l0,0v1.5c0,0.4,0.3,0.8,0.8,0.8c0.4,0,0.8-0.3,0.8-0.8l0,0v-1.5
	C911.5,232.7,911.2,232.4,910.8,232.4z"/>
<path class="st21" d="M910.8,255.7c-0.4,0-0.8,0.3-0.8,0.8l0,0v1.5c0,0.4,0.3,0.8,0.8,0.8c0.4,0,0.8-0.3,0.8-0.8l0,0v-1.5
	C911.5,256.1,911.2,255.7,910.8,255.7z"/>
<path class="st21" d="M910.8,261.6c-0.4,0-0.8,0.3-0.8,0.8l0,0v1.5c0,0.4,0.3,0.8,0.8,0.8c0.4,0,0.8-0.3,0.8-0.8l0,0v-1.5
	C911.5,261.9,911.2,261.6,910.8,261.6z"/>
<path class="st21" d="M910.8,244.1c-0.4,0-0.8,0.3-0.8,0.8l0,0v1.5c0,0.4,0.3,0.8,0.8,0.8c0.4,0,0.8-0.3,0.8-0.8l0,0v-1.5
	C911.5,244.4,911.2,244.1,910.8,244.1z"/>
<path class="st21" d="M910.8,249.9c-0.4,0-0.8,0.3-0.8,0.8l0,0v1.5c0,0.4,0.3,0.8,0.8,0.8c0.4,0,0.8-0.3,0.8-0.8l0,0v-1.5
	C911.5,250.2,911.2,249.9,910.8,249.9z"/>
<path class="st21" d="M910.8,238.2c-0.4,0-0.8,0.3-0.8,0.8l0,0v1.5c0,0.4,0.3,0.8,0.8,0.8c0.4,0,0.8-0.3,0.8-0.8l0,0V239
	C911.6,238.6,911.2,238.2,910.8,238.2L910.8,238.2z"/>
<path class="st21" d="M910.8,168.1c-0.4,0-0.8,0.3-0.8,0.8l0,0v1.5c0,0.4,0.3,0.8,0.8,0.8c0.4,0,0.8-0.3,0.8-0.8v-1.5
	C911.5,168.4,911.2,168.1,910.8,168.1z"/>
<path class="st21" d="M910.8,179.8c-0.4,0-0.8,0.3-0.8,0.8l0,0v1.5c0,0.4,0.3,0.8,0.8,0.8c0.4,0,0.8-0.3,0.8-0.8v-1.5
	C911.5,180.1,911.2,179.8,910.8,179.8z"/>
<path class="st21" d="M910.8,173.9c-0.4,0-0.8,0.3-0.8,0.8l0,0v1.5c0,0.4,0.3,0.8,0.8,0.8c0.4,0,0.8-0.3,0.8-0.8v-1.5
	C911.5,174.3,911.2,173.9,910.8,173.9z"/>
<path class="st21" d="M910.8,162.2c-0.4,0-0.8,0.3-0.8,0.8l0,0v1.5c0,0.4,0.3,0.8,0.8,0.8c0.4,0,0.8-0.3,0.8-0.8V163
	C911.6,162.6,911.2,162.2,910.8,162.2L910.8,162.2z"/>
<path class="st21" d="M910.8,191.4c-0.4,0-0.8,0.3-0.8,0.8l0,0v1.5c0,0.4,0.3,0.8,0.8,0.8c0.4,0,0.8-0.3,0.8-0.8v-1.5
	C911.5,191.8,911.2,191.5,910.8,191.4z"/>
<path class="st21" d="M910.8,203.1c-0.4,0-0.8,0.3-0.8,0.8l0,0v1.5c0,0.4,0.3,0.8,0.8,0.8c0.4,0,0.8-0.3,0.8-0.8v-1.6
	C911.5,203.5,911.2,203.1,910.8,203.1z"/>
<path class="st21" d="M910.8,197.3c-0.4,0-0.8,0.3-0.8,0.8l0,0v1.5c0,0.4,0.3,0.8,0.8,0.8c0.4,0,0.8-0.3,0.8-0.8v-1.5
	C911.5,197.6,911.2,197.3,910.8,197.3z"/>
<path class="st21" d="M910.8,185.6c-0.4,0-0.8,0.3-0.8,0.8l0,0v1.5c0,0.4,0.3,0.8,0.8,0.8c0.4,0,0.8-0.3,0.8-0.8v-1.5
	C911.5,185.9,911.2,185.6,910.8,185.6z"/>
<path class="st21" d="M910.8,209c-0.4,0-0.8,0.3-0.8,0.8l0,0v1.5c0,0.4,0.3,0.8,0.8,0.8c0.4,0,0.8-0.3,0.8-0.8v-1.5
	C911.5,209.3,911.2,209,910.8,209z"/>
<path class="st21" d="M877.9,221.4c-0.4,0-0.8,0.3-0.8,0.8l0,0v1.5c0,0.4,0.3,0.8,0.8,0.8c0.4,0,0.8-0.3,0.8-0.8l0,0v-1.5
	C878.7,221.7,878.3,221.4,877.9,221.4z"/>
<path class="st21" d="M877.9,227.2c-0.4,0-0.8,0.3-0.8,0.8l0,0v1.5c0,0.4,0.3,0.8,0.8,0.8c0.4,0,0.8-0.3,0.8-0.8l0,0V228
	C878.7,227.6,878.3,227.2,877.9,227.2z"/>
<path class="st21" d="M877.9,215.5c-0.4,0-0.8,0.3-0.8,0.8l0,0v1.5c0,0.4,0.3,0.8,0.8,0.8c0.4,0,0.8-0.3,0.8-0.8l0,0v-1.5
	C878.7,215.9,878.3,215.5,877.9,215.5z"/>
<path class="st21" d="M877.9,203.8c-0.4,0-0.8,0.3-0.8,0.8l0,0v1.5c0,0.4,0.3,0.8,0.8,0.8c0.4,0,0.8-0.3,0.8-0.8l0,0v-1.5
	C878.7,204.2,878.3,203.8,877.9,203.8z"/>
<path class="st21" d="M877.9,233.1c-0.4,0-0.8,0.3-0.8,0.8l0,0v1.5c0,0.4,0.3,0.8,0.8,0.8c0.4,0,0.8-0.3,0.8-0.8l0,0v-1.5
	C878.7,233.4,878.3,233.1,877.9,233.1z"/>
<path class="st21" d="M877.9,209.7c-0.4,0-0.8,0.3-0.8,0.8l0,0v1.5c0,0.4,0.3,0.8,0.8,0.8c0.4,0,0.8-0.3,0.8-0.8l0,0v-1.5
	C878.7,210,878.3,209.7,877.9,209.7z"/>
<path class="st21" d="M877.9,256.5c-0.4,0-0.8,0.3-0.8,0.8l0,0v1.5c0,0.4,0.3,0.8,0.8,0.8c0.4,0,0.8-0.3,0.8-0.8l0,0v-1.5
	C878.7,256.8,878.3,256.5,877.9,256.5z"/>
<path class="st21" d="M877.9,262.3c-0.4,0-0.8,0.3-0.8,0.8l0,0v1.5c0,0.4,0.3,0.8,0.8,0.8c0.4,0,0.8-0.3,0.8-0.8l0,0v-1.5
	C878.7,262.6,878.3,262.3,877.9,262.3z"/>
<path class="st21" d="M877.9,238.9c-0.4,0-0.8,0.3-0.8,0.8l0,0v1.5c0,0.4,0.3,0.8,0.8,0.8c0.4,0,0.8-0.3,0.8-0.8l0,0v-1.5
	C878.7,239.3,878.3,238.9,877.9,238.9z"/>
<path class="st21" d="M877.9,250.6c-0.4,0-0.8,0.3-0.8,0.8l0,0v1.5c0,0.4,0.3,0.8,0.8,0.8c0.4,0,0.8-0.3,0.8-0.8l0,0v-1.5
	C878.7,251,878.3,250.6,877.9,250.6z"/>
<path class="st21" d="M877.9,244.8c-0.4,0-0.8,0.3-0.8,0.8l0,0v1.5c0,0.4,0.3,0.8,0.8,0.8c0.4,0,0.8-0.3,0.8-0.8l0,0v-1.5
	C878.7,245.1,878.3,244.8,877.9,244.8z"/>
<path class="st21" d="M877.9,145.4c-0.4,0-0.8,0.3-0.8,0.8l0,0v1.5c0,0.4,0.3,0.8,0.8,0.8c0.4,0,0.8-0.3,0.8-0.8l0,0v-1.5
	C878.7,145.7,878.3,145.4,877.9,145.4z"/>
<path class="st21" d="M877.9,162.9c-0.4,0-0.8,0.3-0.8,0.8l0,0v1.5c0,0.4,0.3,0.8,0.8,0.8c0.4,0,0.8-0.3,0.8-0.8l0,0v-1.5
	C878.7,163.3,878.3,162.9,877.9,162.9z"/>
<path class="st21" d="M877.9,151.2c-0.4,0-0.8,0.3-0.8,0.8l0,0v1.5c0,0.4,0.3,0.8,0.8,0.8c0.4,0,0.8-0.3,0.8-0.8l0,0V152
	C878.7,151.6,878.3,151.2,877.9,151.2z"/>
<path class="st21" d="M877.9,157.1c-0.4,0-0.8,0.3-0.8,0.8l0,0v1.5c0,0.4,0.3,0.8,0.8,0.8c0.4,0,0.8-0.3,0.8-0.8l0,0v-1.5
	C878.7,157.4,878.3,157.1,877.9,157.1z"/>
<path class="st21" d="M877.9,139.6c-0.4,0-0.8,0.3-0.8,0.8l0,0v1.5c0,0.4,0.3,0.8,0.8,0.8c0.4,0,0.8-0.3,0.8-0.8l0,0v-1.5
	C878.7,139.9,878.3,139.6,877.9,139.6z"/>
<path class="st21" d="M877.9,198c-0.4,0-0.8,0.3-0.8,0.8l0,0v1.5c0,0.4,0.3,0.8,0.8,0.8c0.4,0,0.8-0.3,0.8-0.8l0,0v-1.5
	C878.7,198.3,878.3,198,877.9,198z"/>
<path class="st21" d="M877.9,133.7c-0.4,0-0.8,0.3-0.8,0.8l0,0v1.5c0,0.4,0.3,0.8,0.8,0.8c0.4,0,0.8-0.3,0.8-0.8l0,0v-1.5
	C878.7,134,878.3,133.7,877.9,133.7z"/>
<path class="st21" d="M877.9,186.3c-0.4,0-0.8,0.3-0.8,0.8l0,0v1.5c0,0.4,0.3,0.8,0.8,0.8c0.4,0,0.8-0.3,0.8-0.8l0,0v-1.5
	C878.7,186.7,878.3,186.3,877.9,186.3z"/>
<path class="st21" d="M877.9,192.1c-0.4,0-0.8,0.3-0.8,0.8l0,0v1.5c0,0.4,0.3,0.8,0.8,0.8c0.4,0,0.8-0.3,0.8-0.8l0,0v-1.5
	C878.7,192.5,878.3,192.2,877.9,192.1z"/>
<path class="st21" d="M877.9,174.6c-0.4,0-0.8,0.3-0.8,0.8l0,0v1.5c0,0.4,0.3,0.8,0.8,0.8c0.4,0,0.8-0.3,0.8-0.8l0,0v-1.5
	C878.7,175,878.3,174.6,877.9,174.6z"/>
<path class="st21" d="M877.9,168.8c-0.4,0-0.8,0.3-0.8,0.8l0,0v1.5c0,0.4,0.3,0.8,0.8,0.8c0.4,0,0.8-0.3,0.8-0.8l0,0v-1.5
	C878.7,169.1,878.3,168.8,877.9,168.8z"/>
<path class="st21" d="M877.9,180.5c-0.4,0-0.8,0.3-0.8,0.8l0,0v1.5c0,0.4,0.3,0.8,0.8,0.8c0.4,0,0.8-0.3,0.8-0.8l0,0v-1.5
	C878.7,180.8,878.3,180.5,877.9,180.5z"/>
<path class="st21" d="M845.1,226.5c-0.4,0-0.8,0.3-0.8,0.8l0,0v1.5c0,0.4,0.3,0.8,0.8,0.8c0.4,0,0.8-0.3,0.8-0.8l0,0v-1.5
	C845.8,226.8,845.5,226.5,845.1,226.5z"/>
<path class="st21" d="M845.1,238.2c-0.4,0-0.8,0.3-0.8,0.8l0,0v1.5c0,0.4,0.3,0.8,0.8,0.8c0.4,0,0.8-0.3,0.8-0.8l0,0V239
	C845.8,238.5,845.5,238.2,845.1,238.2z"/>
<path class="st21" d="M845.1,220.6c-0.4,0-0.8,0.3-0.8,0.8l0,0v1.5c0,0.4,0.3,0.8,0.8,0.8c0.4,0,0.8-0.3,0.8-0.8l0,0v-1.5
	C845.8,221,845.5,220.6,845.1,220.6z"/>
<path class="st21" d="M845.1,214.8c-0.4,0-0.8,0.3-0.8,0.8l0,0v1.5c0,0.4,0.3,0.8,0.8,0.8c0.4,0,0.8-0.3,0.8-0.8l0,0v-1.5
	C845.8,215.1,845.5,214.8,845.1,214.8z"/>
<path class="st21" d="M845.1,249.9c-0.4,0-0.8,0.3-0.8,0.8l0,0v1.5c0,0.4,0.3,0.8,0.8,0.8c0.4,0,0.8-0.3,0.8-0.8l0,0v-1.5
	C845.8,250.2,845.5,249.9,845.1,249.9z"/>
<path class="st21" d="M845.1,255.7c-0.4,0-0.8,0.3-0.8,0.8l0,0v1.5c0,0.4,0.3,0.8,0.8,0.8c0.4,0,0.8-0.3,0.8-0.8l0,0v-1.5
	C845.8,256,845.5,255.7,845.1,255.7z"/>
<path class="st21" d="M845.1,244c-0.4,0-0.8,0.3-0.8,0.8l0,0v1.5c0,0.4,0.3,0.8,0.8,0.8c0.4,0,0.8-0.3,0.8-0.8l0,0v-1.5
	C845.8,244.3,845.5,244,845.1,244z"/>
<path class="st21" d="M845.1,261.5c-0.4,0-0.8,0.3-0.8,0.8l0,0v1.5c0,0.4,0.3,0.8,0.8,0.8c0.4,0,0.8-0.3,0.8-0.8l0,0v-1.5
	C845.8,261.9,845.5,261.6,845.1,261.5z"/>
<path class="st21" d="M845.1,208.9c-0.4,0-0.8,0.3-0.8,0.8l0,0v1.5c0,0.4,0.3,0.8,0.8,0.8c0.4,0,0.8-0.3,0.8-0.8l0,0v-1.5
	C845.8,209.3,845.5,208.9,845.1,208.9z"/>
<path class="st21" d="M845.1,232.3c-0.4,0-0.8,0.3-0.8,0.8l0,0v1.5c0,0.4,0.3,0.8,0.8,0.8c0.4,0,0.8-0.3,0.8-0.8l0,0v-1.5
	C845.8,232.7,845.5,232.3,845.1,232.3z"/>
<path class="st21" d="M845.1,162.2c-0.4,0-0.8,0.3-0.8,0.8l0,0v1.5c0,0.4,0.3,0.8,0.8,0.8c0.4,0,0.8-0.3,0.8-0.8V163
	C845.9,162.6,845.5,162.2,845.1,162.2L845.1,162.2z"/>
<path class="st21" d="M845.1,168c-0.4,0-0.8,0.3-0.8,0.8l0,0v1.5c0,0.4,0.3,0.8,0.8,0.8c0.4,0,0.8-0.3,0.8-0.8v-1.5
	C845.8,168.4,845.5,168,845.1,168L845.1,168z"/>
<path class="st21" d="M845.1,203.1c-0.4,0-0.8,0.3-0.8,0.8l0,0v1.5c0,0.4,0.3,0.8,0.8,0.8c0.4,0,0.8-0.3,0.8-0.8l0,0v-1.5
	C845.8,203.4,845.5,203.1,845.1,203.1z"/>
<path class="st21" d="M845.1,173.9c-0.4,0-0.8,0.3-0.8,0.8l0,0v1.5c0,0.4,0.3,0.8,0.8,0.8c0.4,0,0.8-0.3,0.8-0.8v-1.5
	C845.8,174.2,845.5,173.9,845.1,173.9z"/>
<path class="st21" d="M845.1,156.3c-0.4,0-0.8,0.3-0.8,0.8l0,0v1.5c0,0.4,0.3,0.8,0.8,0.8c0.4,0,0.8-0.3,0.8-0.8v-1.5
	C845.8,156.7,845.5,156.3,845.1,156.3z"/>
<path class="st21" d="M845.1,191.4c-0.4,0-0.8,0.3-0.8,0.8l0,0v1.5c0,0.4,0.3,0.8,0.8,0.8c0.4,0,0.8-0.3,0.8-0.8v-1.5
	C845.8,191.8,845.5,191.4,845.1,191.4z"/>
<path class="st21" d="M845.1,179.7c-0.4,0-0.8,0.3-0.8,0.8l0,0v1.5c0,0.4,0.3,0.8,0.8,0.8c0.4,0,0.8-0.3,0.8-0.8v-1.5
	C845.8,180,845.5,179.7,845.1,179.7z"/>
<path class="st21" d="M845.1,197.3c-0.4,0-0.8,0.3-0.8,0.8l0,0v1.5c0,0.4,0.3,0.8,0.8,0.8c0.4,0,0.8-0.3,0.8-0.8l0,0V198
	C845.8,197.6,845.5,197.2,845.1,197.3z"/>
<path class="st21" d="M845.1,185.6c-0.4,0-0.8,0.3-0.8,0.8l0,0v1.5c0,0.4,0.3,0.8,0.8,0.8c0.4,0,0.8-0.3,0.8-0.8v-1.5
	C845.8,185.9,845.5,185.6,845.1,185.6z"/>
<path class="st21" d="M812.2,249.7c-0.4,0-0.8,0.3-0.8,0.8l0,0v1.5c0,0.4,0.3,0.8,0.8,0.8c0.4,0,0.8-0.3,0.8-0.8v-1.5
	C813,250,812.6,249.7,812.2,249.7z"/>
<path class="st21" d="M812.2,255.6c-0.4,0-0.8,0.3-0.8,0.8l0,0v1.5c0,0.4,0.3,0.8,0.8,0.8c0.4,0,0.8-0.3,0.8-0.8v-1.5
	C813,255.9,812.6,255.6,812.2,255.6z"/>
<path class="st21" d="M812.2,267.3c-0.4,0-0.8,0.3-0.8,0.8l0,0v0.1c0,0.4,0.3,0.8,0.8,0.8c0.4,0,0.8-0.3,0.8-0.8V268
	C813,267.6,812.6,267.2,812.2,267.3z"/>
<path class="st21" d="M812.2,243.9c-0.4,0-0.8,0.3-0.8,0.8l0,0v1.5c0,0.4,0.3,0.8,0.8,0.8c0.4,0,0.8-0.3,0.8-0.8v-1.5
	C813,244.2,812.6,243.9,812.2,243.9z"/>
<path class="st21" d="M812.2,261.4c-0.4,0-0.8,0.3-0.8,0.8l0,0v1.5c0,0.4,0.3,0.8,0.8,0.8c0.4,0,0.8-0.3,0.8-0.8v-1.5
	C813,261.8,812.6,261.4,812.2,261.4z"/>
<path class="st21" d="M812.2,214.6c-0.4,0-0.8,0.3-0.8,0.8l0,0v1.6c0,0.4,0.3,0.8,0.8,0.8c0.4,0,0.8-0.3,0.8-0.8v-1.5
	C813,215,812.7,214.7,812.2,214.6C812.2,214.7,812.2,214.6,812.2,214.6z"/>
<path class="st21" d="M812.2,208.8c-0.4,0-0.8,0.3-0.8,0.8l0,0v1.5c0,0.4,0.3,0.8,0.8,0.8c0.4,0,0.8-0.3,0.8-0.8v-1.5
	C813,209.1,812.6,208.8,812.2,208.8z"/>
<path class="st21" d="M812.2,220.5c-0.4,0-0.8,0.3-0.8,0.8l0,0v1.5c0,0.4,0.3,0.8,0.8,0.8c0.4,0,0.8-0.3,0.8-0.8v-1.5
	C813,220.8,812.6,220.5,812.2,220.5z"/>
<path class="st21" d="M812.2,232.2c-0.4,0-0.8,0.3-0.8,0.8l0,0v1.5c0,0.4,0.3,0.8,0.8,0.8c0.4,0,0.8-0.3,0.8-0.8V233
	C813,232.5,812.6,232.2,812.2,232.2z"/>
<path class="st21" d="M812.2,226.3c-0.4,0-0.8,0.3-0.8,0.8l0,0v1.5c0,0.4,0.3,0.8,0.8,0.8c0.4,0,0.8-0.3,0.8-0.8v-1.5
	C813,226.7,812.6,226.3,812.2,226.3z"/>
<path class="st21" d="M812.2,238c-0.4,0-0.8,0.3-0.8,0.8l0,0v1.5c0,0.4,0.3,0.8,0.8,0.8c0.4,0,0.8-0.3,0.8-0.8v-1.5
	C813,238.4,812.7,238,812.2,238L812.2,238z"/>
<path class="st21" d="M779.3,257c-0.4,0-0.8,0.3-0.8,0.8l0,0v1.5c0,0.4,0.3,0.8,0.8,0.8c0.4,0,0.8-0.3,0.8-0.8l0,0v-1.5
	C780.1,257.3,779.8,257,779.3,257z"/>
<path class="st21" d="M779.3,262.8c-0.4,0-0.8,0.3-0.8,0.8l0,0v1.5c0,0.4,0.3,0.8,0.8,0.8c0.4,0,0.8-0.3,0.8-0.8l0,0v-1.5
	C780.1,263.2,779.8,262.8,779.3,262.8z"/>
<path class="st21" d="M779.3,251.1c-0.4,0-0.8,0.3-0.8,0.8l0,0v1.5c0,0.4,0.3,0.8,0.8,0.8c0.4,0,0.8-0.3,0.8-0.8l0,0v-1.5
	C780.1,251.5,779.8,251.1,779.3,251.1z"/>
<path class="st21" d="M779.3,233.6c-0.4,0-0.8,0.3-0.8,0.8l0,0v1.5c0,0.4,0.3,0.8,0.8,0.8c0.4,0,0.8-0.3,0.8-0.8l0,0v-1.5
	C780.1,233.9,779.8,233.6,779.3,233.6z"/>
<path class="st21" d="M779.3,227.8c-0.4,0-0.8,0.3-0.8,0.8l0,0v1.5c0,0.4,0.3,0.8,0.8,0.8c0.4,0,0.8-0.3,0.8-0.8l0,0v-1.5
	C780.1,228.1,779.8,227.8,779.3,227.8z"/>
<path class="st21" d="M779.3,245.3c-0.4,0-0.8,0.3-0.8,0.8l0,0v1.5c0,0.4,0.3,0.8,0.8,0.8c0.4,0,0.8-0.3,0.8-0.8l0,0v-1.5
	C780.1,245.6,779.8,245.3,779.3,245.3z"/>
<path class="st21" d="M779.3,239.4c-0.4,0-0.8,0.3-0.8,0.8l0,0v1.5c0,0.4,0.3,0.8,0.8,0.8c0.4,0,0.8-0.3,0.8-0.8l0,0v-1.5
	C780.1,239.8,779.8,239.5,779.3,239.4z"/>
<path class="st20" d="M830.7,25h44.5c1.1,0,2,0.9,2,2v44.6c0,1.1-0.9,1.9-2,1.9h-44.5c-1.1,0-2-0.9-2-1.9V26.9
	C828.7,25.8,829.6,25,830.7,25z"/>
<path class="st8" d="M1257.5,126.8h49.5c1.2,0,2.2,1,2.2,2.2v49.5c0,1.2-1,2.2-2.2,2.2h-49.5c-1.2,0-2.2-1-2.2-2.2V129
	C1255.3,127.7,1256.3,126.8,1257.5,126.8z"/>
<path class="st0" d="M1281.5,136c-9.8,0-17.7,7.9-17.7,17.7s7.9,17.7,17.7,17.7c9.8,0,17.7-7.9,17.7-17.7l0,0
	C1299.2,143.9,1291.3,136,1281.5,136z M1281.5,169.6c-8.8,0-15.9-7.1-15.9-15.9c0-8.8,7.1-15.9,15.9-15.9s15.9,7.1,15.9,15.9
	S1290.3,169.6,1281.5,169.6L1281.5,169.6z"/>
<path class="st0" d="M1296.1,145.2l-13.7,6.9v-15.3c0-0.5-0.4-0.9-0.9-0.9s-0.9,0.4-0.9,0.9l0,0v16.8c0,0.5,0.4,0.9,0.9,0.9
	c0.1,0,0.3,0,0.4-0.1l15-7.6c0.4-0.2,0.6-0.8,0.4-1.2C1297.1,145.2,1296.5,145,1296.1,145.2L1296.1,145.2L1296.1,145.2z"/>
<path class="st0" d="M1282.2,153.1c-0.3-0.4-0.9-0.5-1.3-0.2s-0.5,0.9-0.2,1.3l0,0l9.9,13.7c0.3,0.4,0.9,0.5,1.3,0.2
	s0.5-0.9,0.2-1.3l0,0L1282.2,153.1z"/>
<polygon class="st17" points="772.4,212.6 772.8,214.4 774.7,213.4 774.7,213.4 774.7,221.4 777,221.4 777,211.4 775.1,211.4 "/>
<path class="st17" d="M783.9,211.2c-2.6,0-3.8,2.3-3.8,5.2s1.2,5.1,3.7,5.1s3.8-2.1,3.8-5.2C787.6,213.6,786.6,211.2,783.9,211.2z
	 M783.9,219.8c-0.9,0-1.5-1.1-1.4-3.4s0.5-3.4,1.4-3.4s1.4,1.2,1.4,3.4S784.8,219.8,783.9,219.8L783.9,219.8z"/>
<path class="st21" d="M807.6,200.1l0.9-0.8c1.4-1.3,2.7-2.6,2.7-4.3s-1.2-3.1-3.5-3.1c-1.2,0-2.3,0.3-3.3,1l0.7,1.7
	c0.6-0.5,1.3-0.8,2.1-0.8c1.2,0,1.6,0.6,1.6,1.5c0,1.2-1.1,2.3-3.3,4.2l-1.3,1.2v1.4h7.1v-1.9L807.6,200.1L807.6,200.1z"/>
<path class="st21" d="M816.4,191.9c-2.6,0-3.8,2.3-3.8,5.2s1.2,5.1,3.7,5.1s3.8-2.1,3.8-5.2C820.1,194.3,819.1,191.9,816.4,191.9z
	 M816.4,200.4c-0.9,0-1.5-1.1-1.4-3.4s0.6-3.4,1.4-3.4s1.4,1.2,1.4,3.4S817.3,200.4,816.4,200.4L816.4,200.4z"/>
<path class="st17" d="M843.7,142.9c-0.8-0.5-1.7-0.8-2.6-0.7c-0.2,0-0.4,0-0.6,0l0.2-1.5h3.9v-1.9H839l-0.7,5.2
	c0.4-0.1,0.9-0.1,1.3-0.1c2,0,2.8,0.6,2.8,1.7s-1,1.5-2,1.5c-0.8,0-1.5-0.2-2.3-0.5l-0.4,1.8c0.9,0.4,1.8,0.6,2.8,0.6
	c2.7,0,4.3-1.6,4.3-3.5C845,144.5,844.5,143.5,843.7,142.9z"/>
<path class="st17" d="M850,138.6c-2.6,0-3.8,2.3-3.8,5.2s1.2,5.1,3.7,5.1s3.8-2.1,3.8-5.2C853.8,141,852.7,138.6,850,138.6z
	 M850,147.2c-0.9,0-1.5-1.1-1.4-3.4s0.6-3.4,1.4-3.4s1.4,1.2,1.4,3.4S850.9,147.2,850,147.2L850,147.2z"/>
<path class="st21" d="M874.1,120.4c-0.8,0-1.6,0.2-2.1,0.8l0,0c0.3-1.2,1.2-2.2,3.3-2.4c0.3,0,0.6,0,0.9,0V117c-0.3,0-0.6,0-0.9,0
	c-3.1-0.1-5.6,2.4-5.6,5.4c0,0.2,0,0.3,0,0.5c0,2.4,1.3,4.4,4,4.4c2,0.1,3.6-1.5,3.7-3.5c0-0.1,0-0.1,0-0.2c0.1-1.7-1.1-3.1-2.7-3.3
	C874.4,120.4,874.2,120.4,874.1,120.4z M873.5,125.5c-1.1,0-1.6-1-1.6-2c0-0.2,0-0.4,0.1-0.6c0.3-0.8,1.2-1.1,2-0.7
	c0.6,0.3,1,0.9,0.9,1.6C874.8,124.8,874.3,125.5,873.5,125.5z"/>
<path class="st21" d="M884.1,121.3c-0.8-0.5-1.7-0.8-2.6-0.7c-0.2,0-0.4,0-0.6,0l0.2-1.5h3.9v-1.9h-5.5l-0.7,5.2
	c0.4-0.1,0.9-0.1,1.3-0.1c2,0,2.8,0.6,2.8,1.7s-1,1.5-2,1.5c-0.8,0-1.5-0.2-2.3-0.5l-0.4,1.8c0.9,0.4,1.8,0.6,2.8,0.6
	c2.7,0,4.3-1.6,4.3-3.5C885.3,122.8,884.9,121.8,884.1,121.3z"/>
<path class="st17" d="M910.6,145.9h-2.8L904,152v1.5h4.4v2.4h2.2v-2.4h1.2v-1.8h-1.2L910.6,145.9z M908.4,149.5v2.2h-2.2l0,0
	l1.3-2.2c0.3-0.6,0.6-1.2,0.9-1.9h0.1C908.4,148.3,908.4,148.9,908.4,149.5z"/>
<path class="st17" d="M918.6,150c-0.8-0.5-1.7-0.8-2.6-0.7c-0.2,0-0.4,0-0.6,0l0.2-1.5h3.9v-1.9H914l-0.7,5.2
	c0.4-0.1,0.9-0.1,1.3-0.1c2,0,2.8,0.6,2.8,1.7s-1,1.5-2,1.5c-0.8,0-1.5-0.2-2.3-0.5l-0.4,1.8c0.9,0.4,1.8,0.6,2.8,0.6
	c2.7,0,4.3-1.6,4.3-3.5C919.9,151.5,919.4,150.6,918.6,150z"/>
<path class="st17" d="M941,166.4L941,166.4c1.1-0.3,1.8-1.2,1.8-2.3c0-1.4-1.2-2.5-3.3-2.5c-1.1,0-2.1,0.2-3.1,0.8l0.5,1.7
	c0.6-0.4,1.4-0.6,2.1-0.6c1,0,1.5,0.4,1.5,1c0,0.8-1,1.1-1.8,1.1h-0.9v1.7h1c1,0,2,0.4,2,1.4c0,0.8-0.6,1.3-1.8,1.3
	c-0.8,0-1.6-0.2-2.3-0.6l-0.5,1.8c0.9,0.5,2,0.7,3,0.7c2.5,0,4.1-1.3,4.1-3.1C943.2,167.5,942.2,166.5,941,166.4z"/>
<path class="st17" d="M948.3,161.5c-2.6,0-3.8,2.3-3.8,5.2s1.2,5.1,3.7,5.1s3.8-2.1,3.8-5.2C952,163.9,951,161.5,948.3,161.5z
	 M948.3,170.1c-0.9,0-1.5-1.1-1.4-3.4s0.6-3.4,1.4-3.4s1.4,1.2,1.4,3.4S949.2,170.1,948.3,170.1L948.3,170.1z"/>
<path class="st19" d="M1042.2,198.8h91.5c1,0,1.8,0.8,1.8,1.9v48.2c0,1-0.8,1.9-1.8,1.9h-91.5c-1,0-1.8-0.8-1.8-1.9v-48.2
	C1040.4,199.6,1041.2,198.8,1042.2,198.8z"/>
<rect x="1057.2" y="250.7" class="st20" width="62.9" height="17.5"/>
<path class="st21" d="M874.5,97H873c-0.4,0-0.8,0.3-0.8,0.8c0,0.4,0.3,0.8,0.8,0.8h1.5c0.4,0,0.8-0.3,0.8-0.8S875,97,874.5,97
	L874.5,97z"/>
<path class="st21" d="M857,97h-1.5c-0.4,0-0.8,0.3-0.8,0.8c0,0.4,0.3,0.8,0.8,0.8h1.5c0.4,0,0.8-0.3,0.8-0.8S857.4,97,857,97z"/>
<path class="st21" d="M868.7,97h-1.5c-0.4,0-0.8,0.3-0.8,0.8c0,0.4,0.3,0.8,0.8,0.8h1.5c0.4,0,0.8-0.3,0.8-0.8
	C869.4,97.3,869.1,97,868.7,97z"/>
<path class="st21" d="M862.8,97h-1.5c-0.4,0-0.8,0.3-0.8,0.8c0,0.4,0.3,0.8,0.8,0.8h1.5c0.4,0,0.8-0.3,0.8-0.8S863.2,97,862.8,97z"
	/>
<path class="st21" d="M853,87.7c-0.4,0-0.8,0.3-0.8,0.8l0,0V90c0,0.4,0.3,0.8,0.8,0.8c0.4,0,0.8-0.3,0.8-0.8l0,0v-1.5
	C853.8,88.1,853.4,87.7,853,87.7z"/>
<path class="st21" d="M853,76c-0.4,0-0.8,0.3-0.8,0.8l0,0v1.5c0,0.4,0.3,0.8,0.8,0.8c0.4,0,0.8-0.3,0.8-0.8l0,0v-1.5
	C853.8,76.4,853.5,76,853,76L853,76z"/>
<path class="st21" d="M853,81.9c-0.4,0-0.8,0.3-0.8,0.8l0,0v1.5c0,0.4,0.3,0.8,0.8,0.8c0.4,0,0.8-0.3,0.8-0.8l0,0v-1.5
	C853.8,82.2,853.4,81.9,853,81.9z"/>
<path class="st21" d="M853,93.6c-0.4,0-0.8,0.3-0.8,0.8l0,0v1.5c0,0.4,0.3,0.8,0.8,0.8c0.4,0,0.8-0.3,0.8-0.8l0,0v-1.5
	C853.8,93.9,853.4,93.6,853,93.6z"/>
<path class="st21" d="M909.6,97H908c-0.4,0-0.8,0.3-0.8,0.8c0,0.4,0.3,0.8,0.8,0.8h1.5c0.4,0,0.8-0.3,0.8-0.8S910,97,909.6,97
	L909.6,97z"/>
<path class="st21" d="M915.4,97h-1.5c-0.4,0-0.8,0.3-0.8,0.8c0,0.4,0.3,0.8,0.8,0.8h1.5c0.4,0,0.8-0.3,0.8-0.8S915.8,97,915.4,97z"
	/>
<path class="st21" d="M903.7,97h-1.5c-0.4,0-0.8,0.3-0.8,0.8c0,0.4,0.3,0.8,0.8,0.8h1.5c0.4,0,0.8-0.3,0.8-0.8S904.1,97,903.7,97z"
	/>
<path class="st21" d="M880.3,97h-1.5c-0.4,0-0.8,0.3-0.8,0.8c0,0.4,0.3,0.8,0.8,0.8h1.5c0.4,0,0.8-0.3,0.8-0.8S880.8,97,880.3,97
	L880.3,97z"/>
<path class="st21" d="M886.2,97h-1.5c-0.4,0-0.8,0.3-0.8,0.8c0,0.4,0.3,0.8,0.8,0.8h1.5c0.4,0,0.8-0.3,0.8-0.8S886.6,97,886.2,97z"
	/>
<path class="st21" d="M897.9,97h-1.5c-0.4,0-0.8,0.3-0.8,0.8c0,0.4,0.3,0.8,0.8,0.8h1.5c0.4,0,0.8-0.3,0.8-0.8
	C898.6,97.3,898.3,97,897.9,97z"/>
<path class="st21" d="M892,97h-1.5c-0.4,0-0.8,0.3-0.8,0.8c0,0.4,0.3,0.8,0.8,0.8h1.5c0.4,0,0.8-0.3,0.8-0.8S892.4,97,892,97z"/>
<circle class="st21" cx="917.5" cy="97.7" r="6"/>
<circle class="st0" cx="917.5" cy="97.7" r="2.4"/>
<path class="st7" d="M1078,81.3L1078,81.3c1.2,0,2.1,1,2.1,2.1V98c0,1.2-1,2.1-2.1,2.1l0,0c-1.2,0-2.1-1-2.1-2.1V83.4
	C1075.8,82.3,1076.8,81.3,1078,81.3z"/>
<path class="st0" d="M1089.6,73.8c-1.2,0-2.1,1-2.1,2.1l0,0V98c0.1,1.2,1.1,2.1,2.3,2c1.1-0.1,1.9-0.9,2-2V75.9
	C1091.7,74.7,1090.8,73.8,1089.6,73.8z"/>
<path class="st7" d="M1101.2,68.5c-1.2,0-2.1,1-2.1,2.1l0,0V98c0.1,1.2,1.1,2.1,2.3,2c1.1-0.1,1.9-0.9,2-2V70.6
	C1103.3,69.5,1102.4,68.5,1101.2,68.5z"/>
<path class="st0" d="M1112.8,57.6c-1.2,0-2.1,1-2.1,2.1l0,0V98c0.1,1.2,1.1,2.1,2.3,2c1.1-0.1,1.9-0.9,2-2V59.7
	C1115,58.6,1114,57.6,1112.8,57.6z"/>
<path class="st0" d="M1136.1,75.5L1136.1,75.5c1.2,0,2.1,1,2.1,2.1V98c0,1.2-1,2.1-2.1,2.1l0,0c-1.2,0-2.1-1-2.1-2.1V77.6
	C1133.9,76.4,1134.9,75.5,1136.1,75.5z"/>
<path class="st7" d="M1147.7,82.8c-1.2,0-2.1,1-2.1,2.1l0,0V98c0.1,1.2,1.1,2.1,2.3,2c1.1-0.1,1.9-0.9,2-2V84.9
	C1149.8,83.7,1148.9,82.8,1147.7,82.8z"/>
<path class="st0" d="M1159.3,70.3c-1.2,0-2.1,1-2.1,2.1l0,0V98c0.1,1.2,1.1,2.1,2.3,2c1.1-0.1,1.9-0.9,2-2V72.4
	C1161.4,71.3,1160.5,70.3,1159.3,70.3z"/>
<path class="st0" d="M1092.7,59h-18.9c-0.4,0-0.8,0.3-0.8,0.8s0.3,0.8,0.8,0.8h18.9c0.4,0,0.8-0.3,0.8-0.8S1093.1,59,1092.7,59z"/>
<path class="st0" d="M1092.7,64.7h-18.9c-0.4,0-0.8,0.3-0.8,0.8c0,0.4,0.3,0.8,0.8,0.8h18.9c0.4,0,0.8-0.3,0.8-0.8
	C1093.5,65.1,1093.1,64.7,1092.7,64.7z"/>
<path class="st0" d="M1078.8,211.9h-18.9c-0.4,0-0.8,0.3-0.8,0.8c0,0.4,0.3,0.8,0.8,0.8h18.9c0.4,0,0.8-0.3,0.8-0.8
	C1079.6,212.3,1079.3,211.9,1078.8,211.9C1078.9,211.9,1078.9,211.9,1078.8,211.9z"/>
<path class="st0" d="M1078.8,217.7h-18.9c-0.4,0-0.8,0.3-0.8,0.8c0,0.4,0.3,0.8,0.8,0.8h18.9c0.4,0,0.8-0.3,0.8-0.8
	C1079.6,218,1079.3,217.7,1078.8,217.7C1078.9,217.7,1078.9,217.7,1078.8,217.7z"/>
<path class="st0" d="M1078.8,228.9h-18.9c-0.4,0-0.8,0.3-0.8,0.8c0,0.4,0.3,0.8,0.8,0.8h18.9c0.4,0,0.8-0.3,0.8-0.8
	C1079.6,229.3,1079.3,228.9,1078.8,228.9C1078.9,228.9,1078.9,228.9,1078.8,228.9z"/>
<path class="st0" d="M1078.8,234.7h-18.9c-0.4,0-0.8,0.3-0.8,0.8c0,0.4,0.3,0.8,0.8,0.8h18.9c0.4,0,0.8-0.3,0.8-0.8
	C1079.6,235,1079.3,234.7,1078.8,234.7C1078.9,234.7,1078.9,234.7,1078.8,234.7z"/>
<path class="st0" d="M1122.4,211.9h-18.9c-0.4,0-0.8,0.3-0.8,0.8c0,0.4,0.3,0.8,0.8,0.8l0,0h18.9c0.4,0,0.8-0.3,0.8-0.8
	C1123.2,212.3,1122.9,211.9,1122.4,211.9z"/>
<path class="st0" d="M1122.4,217.7h-18.9c-0.4,0-0.8,0.3-0.8,0.8c0,0.4,0.3,0.8,0.8,0.8l0,0h18.9c0.4,0,0.8-0.3,0.8-0.8
	C1123.2,218,1122.9,217.7,1122.4,217.7z"/>
<path class="st0" d="M1122.4,228.9h-18.9c-0.4,0-0.8,0.3-0.8,0.8c0,0.4,0.3,0.8,0.8,0.8l0,0h18.9c0.4,0,0.8-0.3,0.8-0.8
	C1123.2,229.3,1122.9,228.9,1122.4,228.9z"/>
<path class="st0" d="M1122.4,234.7h-18.9c-0.4,0-0.8,0.3-0.8,0.8c0,0.4,0.3,0.8,0.8,0.8l0,0h18.9c0.4,0,0.8-0.3,0.8-0.8
	C1123.2,235,1122.9,234.7,1122.4,234.7z"/>
<circle class="st7" cx="1050.2" cy="215.4" r="3.8"/>
<circle class="st8" cx="1050.2" cy="232.6" r="3.8"/>
<circle class="st21" cx="1094" cy="215.4" r="3.8"/>
<circle class="st17" cx="1094" cy="232.6" r="3.8"/>
<path class="st26" d="M1144.7,57.6h14.9c1,0,1.8,0.8,1.8,1.8v5.9c0,1-0.8,1.8-1.8,1.8h-14.9c-1,0-1.8-0.8-1.8-1.8v-5.9
	C1142.9,58.4,1143.7,57.6,1144.7,57.6z"/>
<path class="st26" d="M1088.1,136.2c-5.6,5.6-5.6,14.6,0,20.2c5.6,5.6,14.6,5.6,20.2,0s5.6-14.6,0-20.2S1093.6,130.6,1088.1,136.2
	L1088.1,136.2z M1104.1,152.2c-3.3,3.3-8.6,3.3-11.9,0s-3.3-8.6,0-11.9c3.3-3.3,8.6-3.3,11.9,0S1107.4,148.9,1104.1,152.2
	L1104.1,152.2L1104.1,152.2z"/>
<rect x="1107.9" y="151.6" transform="matrix(0.7071 -0.7071 0.7071 0.7071 213.3898 831.0118)" class="st26" width="3.9" height="12.7"/>
<path class="st20" d="M1119.7,161c-1.9-1.9-5-1.9-6.9,0s-1.9,5,0,6.9l12.8,12.9c1.9,1.9,5,1.9,6.9,0s1.9-5,0-6.9L1119.7,161z"/>
<path class="st0" d="M866.6,51.5h-27.2c-0.6,0-1.1,0.3-1.1,0.8s0.5,0.8,1.1,0.8h27.2c0.6,0,1.1-0.3,1.1-0.8S867.2,51.5,866.6,51.5z"
	/>
<path class="st0" d="M866.6,57.3h-27.2c-0.6,0-1.1,0.3-1.1,0.8s0.5,0.8,1.1,0.8h27.2c0.6,0,1.1-0.3,1.1-0.8S867.2,57.3,866.6,57.3z"
	/>
<path class="st0" d="M866.6,39.5h-27.2c-0.6,0-1.1,0.3-1.1,0.8s0.5,0.8,1.1,0.8h27.2c0.6,0,1.1-0.3,1.1-0.8S867.2,39.5,866.6,39.5z"
	/>
<path class="st0" d="M866.6,45.3h-27.2c-0.6,0-1.1,0.3-1.1,0.8s0.5,0.8,1.1,0.8h27.2c0.6,0,1.1-0.3,1.1-0.8S867.2,45.3,866.6,45.3z"
	/>
<path class="st19" d="M952.7,58.9h14.7c0.9,0,1.7,0.8,1.7,1.7V89c0,0.9-0.8,1.7-1.7,1.7h-14.7c-0.9,0-1.7-0.8-1.7-1.7V60.6
	C951,59.7,951.8,58.9,952.7,58.9z"/>
<path class="st19" d="M1021.1,58.9h14.7c0.9,0,1.7,0.8,1.7,1.7V89c0,0.9-0.8,1.7-1.7,1.7h-14.7c-0.9,0-1.7-0.8-1.7-1.7V60.6
	C1019.3,59.7,1020.1,58.9,1021.1,58.9z"/>
<path class="st23" d="M1136.9,93.4c-4.5-5-7.6-8.1-7.6-10s0.5-6-0.8-8.1s-4.6-7.3-6.1-7.3s-0.7,1.6,0,2.8s2,3.2,2,3.2s-2.5,1-3,2.1
	s0.2,4.1,1.6,5.4c1.3,1.2,2.2,2.7,2.5,4.5c0.5,3.3,1.8,6.5,3.8,9.2c2.5,3.3,4.4,6.7,5.9,8c2.9,2.5,10.8,10,13.5,10.7
	c0.9-3.2,1.6-6.5,2.1-9.8C1150.9,104.2,1141.4,98.4,1136.9,93.4z"/>
<path class="st20" d="M1202.4,133.4c-0.7-6.9-0.3-12.2-1.7-15.1c-1.9-4.3-5.2-8.1-9.9-9.3s-22.7-2.8-22.7-2.8s-8.8,0.1-12.3-0.7
	c-1.7-0.3-3.4-0.8-5-1.4v0c0.1,0.1-9.4-5.7-13.9-10.7c0,0-0.1-0.1-0.1-0.1c-1.2,2.2-2.8,4.3-4.4,6.3c1.1,1.6,2,2.9,2.8,3.6
	c2.9,2.5,10.8,10,13.5,10.7c0,0,0,0,0,0c0,0,8.8,5.9,10.6,9.3c1.8,3.4,2.6,17.6,2.6,23.3s-2.6,14.1-2.6,14.1c4.4,1.5,9,2.1,13.6,2
	c5.8-0.2,11.6-1,17.3-2.3c0,0-1.9-11.4-1.3-17.1c0.6-6.1,4.9-14.4,4.9-14.4s1.7,16.6,1.9,20.7s-2.3,11.5-3.3,13.1
	c-1,1.6-1.6,2.9-1.6,2.9l5.2,6.6c0,0,5.2-9.3,6.4-15.9S1203.3,142.3,1202.4,133.4z"/>
<rect x="1256.5" y="248.2" class="st2" width="54.7" height="22.1"/>
<rect x="1291" y="182.1" class="st2" width="31.8" height="88.2"/>
<rect x="1315.4" y="253.4" class="st2" width="52.6" height="16.5"/>
<rect x="1289.4" y="180.5" class="st2" width="34.9" height="2.9"/>
<rect x="1317.8" y="168.1" class="st2" width="0.7" height="17.8"/>
<rect x="1313.2" y="170.4" class="st2" width="0.7" height="14.3"/>
<polygon class="st2" points="1334.6,215.4 1320.4,215.4 1320.4,255.8 1340.6,255.8 "/>
<g>
	<path class="st17" d="M74.1-0.1h8.1l-8.8,26.7h-8.5L56.2-0.1h8.1L68,13.4c0.8,3,1.2,5.1,1.2,6.3c0.1-0.9,0.3-1.9,0.5-3.2
		s0.5-2.3,0.7-3L74.1-0.1z"/>
	<path class="st17" d="M85.1,26.6V-0.1h7.3v26.7H85.1z"/>
	<path class="st17" d="M115.6,18.5c0,1.7-0.4,3.1-1.3,4.4c-0.8,1.3-2.1,2.3-3.6,3c-1.6,0.7-3.4,1.1-5.6,1.1c-1.8,0-3.3-0.1-4.5-0.4
		c-1.2-0.2-2.5-0.7-3.8-1.3v-6.4c1.4,0.7,2.8,1.3,4.3,1.7c1.5,0.4,2.9,0.6,4.1,0.6c1.1,0,1.9-0.2,2.4-0.6s0.7-0.9,0.7-1.4
		c0-0.4-0.1-0.7-0.3-1c-0.2-0.3-0.5-0.6-1-0.8c-0.4-0.3-1.6-0.9-3.6-1.7c-1.7-0.8-3-1.6-3.9-2.3s-1.5-1.6-1.9-2.6S97,8.7,97,7.4
		c0-2.5,0.9-4.4,2.7-5.8c1.8-1.4,4.3-2.1,7.4-2.1c2.8,0,5.6,0.6,8.5,1.9L113.4,7c-2.5-1.1-4.7-1.7-6.5-1.7c-0.9,0-1.6,0.2-2,0.5
		s-0.6,0.7-0.6,1.2s0.3,1,0.8,1.4s2,1.2,4.4,2.3c2.3,1,3.9,2.1,4.8,3.3C115.1,15.2,115.6,16.7,115.6,18.5z"/>
	<path class="st17" d="M142.4-0.1V16c0,3.5-1,6.2-3,8.1s-4.8,2.9-8.6,2.9c-3.6,0-6.4-0.9-8.4-2.8s-2.9-4.5-2.9-8V-0.1h7.3v15.7
		c0,1.9,0.4,3.3,1.1,4.1c0.7,0.9,1.7,1.3,3.1,1.3c1.5,0,2.5-0.4,3.2-1.3c0.7-0.8,1-2.2,1-4.2V-0.1H142.4z"/>
	<path class="st17" d="M164.4,26.6l-1.3-5h-8.7l-1.4,5h-7.9l8.7-26.8h9.6l8.8,26.8H164.4z M161.6,15.6l-1.2-4.4
		c-0.3-1-0.6-2.2-1-3.8c-0.4-1.5-0.6-2.7-0.8-3.3c-0.1,0.6-0.3,1.6-0.6,3.1c-0.3,1.4-1,4.2-2.1,8.4H161.6z"/>
	<path class="st17" d="M175.2,26.6V-0.1h7.2v20.9h10.3v5.8C192.7,26.6,175.2,26.6,175.2,26.6z"/>
	<path class="st17" d="M197,26.6V-0.1h7.3v26.7H197z"/>
	<path class="st17" d="M229.1,26.6h-20.8v-4.5l11.6-16.4h-11.3v-5.8h20.2v4.4l-11.6,16.4h11.9L229.1,26.6L229.1,26.6z"/>
	<path class="st17" d="M248.7,26.6h-15.9V-0.1h15.9v5.8h-8.6v4.2h8v5.8h-8v5h8.6V26.6z"/>
	<path class="st17" d="M272.7,9.8l4.6-9.9h7.8l-8.8,16.3v10.4H269V16.4l-8.8-16.5h7.9L272.7,9.8z"/>
	<path class="st17" d="M313,13.2c0,4.5-1.1,7.9-3.3,10.3c-2.2,2.3-5.4,3.5-9.7,3.5c-4.2,0-7.4-1.2-9.6-3.5
		c-2.2-2.4-3.4-5.8-3.4-10.3c0-4.4,1.1-7.8,3.3-10.2c2.2-2.3,5.5-3.5,9.7-3.5c4.3,0,7.5,1.2,9.7,3.5C311.9,5.3,313,8.7,313,13.2z
		 M294.6,13.2c0,5.2,1.8,7.7,5.4,7.7c1.8,0,3.2-0.6,4.1-1.9s1.3-3.2,1.3-5.9s-0.4-4.6-1.3-5.9s-2.2-1.9-4-1.9
		C296.4,5.4,294.6,8,294.6,13.2z"/>
	<path class="st17" d="M340.5-0.1V16c0,3.5-1,6.2-3,8.1s-4.8,2.9-8.6,2.9c-3.6,0-6.4-0.9-8.4-2.8s-2.9-4.5-2.9-8V-0.1h7.3v15.7
		c0,1.9,0.4,3.3,1.1,4.1c0.7,0.9,1.7,1.3,3.1,1.3c1.5,0,2.5-0.4,3.2-1.3c0.7-0.8,1-2.2,1-4.2V-0.1H340.5z"/>
	<path class="st17" d="M353.4,16.8v9.7h-7.2V-0.1h8.8c7.3,0,10.9,2.6,10.9,7.9c0,3.1-1.5,5.5-4.5,7.2l7.8,11.6H361l-5.7-9.7h-1.9
		V16.8z M353.4,11.4h1.4c2.5,0,3.8-1.1,3.8-3.3c0-1.8-1.2-2.8-3.7-2.8h-1.4L353.4,11.4L353.4,11.4z"/>
	<path class="st17" d="M151.5,55.4c0,4.5-1.2,7.9-3.7,10.3s-5.9,3.6-10.4,3.6h-8.6V42.6h9.2c4.3,0,7.6,1.1,9.9,3.3
		C150.4,48.1,151.5,51.3,151.5,55.4z M144,55.7c0-2.4-0.5-4.3-1.5-5.4c-1-1.2-2.4-1.8-4.4-1.8H136v15h1.6c2.2,0,3.8-0.6,4.8-1.9
		C143.5,60.2,144,58.3,144,55.7z"/>
	<path class="st17" d="M172.7,69.3l-1.3-5h-8.7l-1.4,5h-7.9l8.7-26.8h9.6l8.8,26.8H172.7z M169.9,58.4l-1.2-4.4
		c-0.3-1-0.6-2.2-1-3.8c-0.4-1.5-0.6-2.7-0.8-3.3c-0.1,0.6-0.3,1.6-0.6,3.1c-0.3,1.4-1,4.2-2.1,8.4H169.9z"/>
	<path class="st17" d="M195.3,69.3h-7.2V48.5h-6.5v-5.9h20.2v5.9h-6.5V69.3z"/>
	<path class="st17" d="M222,69.3l-1.3-5H212l-1.4,5h-7.9l8.7-26.8h9.6l8.8,26.8H222z M219.2,58.4L218,54c-0.3-1-0.6-2.2-1-3.8
		c-0.4-1.5-0.6-2.7-0.8-3.3c-0.1,0.6-0.3,1.6-0.6,3.1c-0.3,1.4-1,4.2-2.1,8.4H219.2z"/>
	<path class="st21" d="M258.4,69.3h-15.9V42.6h15.9v5.8h-8.6v4.2h8v5.8h-8v5h8.6V69.3z"/>
	<path class="st21" d="M279.4,69.3l-1.3-5h-8.7l-1.4,5h-7.9l8.7-26.8h9.6l8.8,26.8H279.4z M276.6,58.4l-1.2-4.4
		c-0.3-1-0.6-2.2-1-3.8c-0.4-1.5-0.6-2.7-0.8-3.3c-0.1,0.6-0.3,1.6-0.6,3.1c-0.3,1.4-1,4.2-2.1,8.4H276.6z"/>
	<path class="st21" d="M307.7,61.2c0,1.7-0.4,3.1-1.3,4.4c-0.8,1.3-2.1,2.3-3.6,3c-1.6,0.7-3.4,1.1-5.6,1.1c-1.8,0-3.3-0.1-4.5-0.4
		c-1.2-0.2-2.5-0.7-3.8-1.3v-6.4c1.4,0.7,2.8,1.3,4.3,1.7s2.9,0.6,4.1,0.6c1.1,0,1.9-0.2,2.4-0.6c0.5-0.4,0.7-0.9,0.7-1.4
		c0-0.4-0.1-0.7-0.3-1c-0.2-0.3-0.5-0.6-1-0.8c-0.4-0.3-1.6-0.9-3.6-1.7c-1.7-0.8-3-1.6-3.9-2.3s-1.5-1.6-1.9-2.6s-0.6-2.1-0.6-3.4
		c0-2.5,0.9-4.4,2.7-5.8c1.8-1.4,4.3-2.1,7.4-2.1c2.8,0,5.6,0.6,8.5,1.9l-2.2,5.6c-2.5-1.1-4.7-1.7-6.5-1.7c-0.9,0-1.6,0.2-2,0.5
		s-0.6,0.7-0.6,1.2s0.3,1,0.8,1.4s2,1.2,4.4,2.3c2.3,1,3.9,2.1,4.8,3.3C307.2,57.9,307.7,59.4,307.7,61.2z"/>
	<path class="st21" d="M311.8,69.3V42.6h7.3v26.7H311.8z"/>
	<path class="st21" d="M324.8,69.3V42.6h7.2v20.9h10.3v5.8H324.8z"/>
	<path class="st21" d="M356.2,52.5l4.6-9.9h7.8l-8.8,16.3v10.4h-7.3V59.1l-8.8-16.5h7.9L356.2,52.5z"/>
</g>
<path class="st18" d="M1186.7,97.9c-1.9-4.5,0.2-6.7-0.8-9.7s-4.2-7.8-8.6-7.7s-8.8-2-10.6,4.4c0.5,0.7,1.1,1.4,1.8,2.1
	c1.1,1.2-0.1,2.5,1.5,4s1.9,0.8,1.9,3.1s-1.4,1.9,0,4.8s2.3,4.4,1.8,6.2s-1.9,4.4-1.4,7.1s3.2,3.7,4.4,7.2s0.1,6.5-0.2,10.4
	c-0.3,3.9,1.3,7.6,3.5,7.9s5.7-3.5,6.8-6.7s1.8-3.5,3.2-5.7s-1.1-5.3,1.1-8.8s3.2-5.2,2.5-8.5S1188.6,102.3,1186.7,97.9z"/>
</svg>
